<svg width="817" height="264" viewBox="0 0 817 264" fill="none" xmlns="http://www.w3.org/2000/svg">
<g clip-path="url(#clip0_1930_4287)">
<path d="M196.034 88.7793C212.462 105.652 222.579 128.694 222.579 154.102C222.579 205.822 180.652 247.75 128.932 247.75C77.2113 247.75 35.2832 205.822 35.2832 154.102C35.2832 130.388 44.0964 108.736 58.627 92.2363L196.034 88.7793Z" stroke="#E2B358" stroke-width="2.61343"/>
<path d="M93.7109 13.9516C93.6803 13.9707 93.218 14.11 92.6829 14.2611C92.1477 14.4116 91.3175 14.6745 90.8373 14.8448C90.357 15.0152 89.6663 15.279 89.3018 15.4317C88.9371 15.5839 88.4084 15.8186 88.1262 15.9541C87.8439 16.089 87.3199 16.3501 86.9612 16.5358C86.6025 16.7209 85.9573 17.0831 85.5269 17.3412C85.0964 17.5992 84.4452 18.0076 84.0798 18.2484C83.7143 18.4892 83.0235 18.9871 82.5447 19.3554C82.0658 19.723 81.3247 20.3309 80.8984 20.7052C80.4722 21.0801 80.1159 21.3923 80.1072 21.3994C80.0985 21.4059 80.253 21.4909 80.4507 21.5886C80.6483 21.6856 81.055 21.9055 81.355 22.0765C81.6544 22.2475 82.1733 22.6033 82.5078 22.8665C82.8423 23.1297 83.3681 23.6068 83.6762 23.9262C83.9843 24.2455 84.4935 24.8649 84.8084 25.3019C85.1234 25.7389 85.5246 26.3498 85.6996 26.659C85.8745 26.9681 86.1996 27.6064 86.4221 28.0773C86.6453 28.5481 86.9777 29.3107 87.1619 29.7711C87.346 30.2315 87.8686 31.6566 88.3237 32.9371C88.7782 34.2178 89.3309 35.721 89.5508 36.2772C89.7707 36.8334 90.1038 37.6237 90.2905 38.0329C90.4778 38.442 90.786 39.0691 90.9753 39.4271C91.1652 39.7849 91.5129 40.3906 91.7477 40.7745C91.983 41.1576 92.4076 41.778 92.691 42.1532C92.9748 42.5276 93.4006 43.0506 93.638 43.3145C93.8754 43.5784 94.2988 44.0089 94.5786 44.2708C94.8585 44.5332 95.2982 44.9137 95.5557 45.1171C95.8133 45.3204 96.3868 45.7215 96.8302 46.0085C97.2735 46.2949 97.8821 46.6569 98.1823 46.8117C98.4825 46.9665 99.0303 47.2242 99.3996 47.3846C99.7688 47.5444 100.411 47.7852 100.827 47.9198C101.243 48.0539 101.86 48.2305 102.197 48.3123C102.535 48.3941 103.356 48.5391 104.02 48.6354C104.684 48.7311 105.62 48.8232 106.1 48.8399C106.58 48.8566 107.25 48.8652 107.589 48.8588C107.929 48.853 108.386 48.8409 108.606 48.8324C108.826 48.8238 109.417 48.7756 109.918 48.7246C110.42 48.6736 111.518 48.5063 112.359 48.3529C113.2 48.1995 114.353 47.9486 114.922 47.7959C115.49 47.6426 116.284 47.4115 116.687 47.2823C117.111 47.1456 117.498 47.0526 117.607 47.0603C117.725 47.0683 118.034 47.2431 118.433 47.5256C118.784 47.7741 119.272 48.1646 119.516 48.3926C119.761 48.6211 120.169 49.0359 120.422 49.3137C120.674 49.5915 121.127 50.1518 121.428 50.5573C121.729 50.9627 122.086 51.4701 122.222 51.6841C123.347 53.4579 123.964 57.0077 124.611 57.8007C124.765 57.7117 124.975 57.565 125.079 57.4753C125.182 57.3849 125.351 57.175 125.456 57.0077C125.56 56.841 125.683 56.5583 125.729 56.3798C125.775 56.2013 125.82 55.8446 125.829 55.5878C125.842 55.227 125.805 54.9438 125.671 54.347C125.574 53.9216 125.399 53.3399 125.283 53.0543C125.166 52.7688 124.974 52.3432 124.855 52.1094C124.737 51.8749 124.336 51.1946 123.964 50.5976C123.592 50.0005 123.035 49.1389 122.727 48.6834C122.419 48.2279 121.805 47.3764 121.364 46.7918C120.923 46.2072 120.462 45.6206 120.339 45.4898C120.216 45.3588 119.648 44.7078 119.076 44.0446C118.503 43.3807 117.506 42.2501 116.86 41.532C116.214 40.8139 115.244 39.7478 114.703 39.1636C114.164 38.5793 113.071 37.4238 112.273 36.5966C111.477 35.7693 110.385 34.6551 109.846 34.122C109.308 33.5888 108.193 32.5208 107.367 31.7495C106.541 30.9783 105.461 30.0019 104.966 29.5798C104.472 29.1577 103.739 28.5512 103.338 28.2311C102.937 27.9111 102.306 27.4325 101.934 27.1667C101.562 26.9015 101.274 26.6603 101.294 26.6314C101.314 26.6025 101.543 26.6405 101.804 26.715C102.065 26.7901 102.49 26.9412 102.748 27.0515C103.006 27.1613 103.452 27.3717 103.739 27.519C104.025 27.6664 104.691 28.0577 105.218 28.3891C105.746 28.7198 106.654 29.3514 107.235 29.7919C107.817 30.2323 108.713 30.9353 109.226 31.3541C109.739 31.7729 110.607 32.5087 111.156 32.9893C111.704 33.4699 112.57 34.2475 113.081 34.718C113.592 35.1887 114.414 35.96 114.907 36.4337C115.401 36.9073 116.374 37.8608 117.071 38.5532C117.767 39.2455 118.839 40.335 119.452 40.9742C120.065 41.6134 120.718 42.3042 120.903 42.5093L121.24 42.8823C121.588 41.6923 121.786 40.9325 121.903 40.426C122.021 39.9194 122.183 39.1312 122.265 38.6739C122.346 38.2167 122.464 37.4289 122.526 36.9243C122.589 36.4196 122.662 35.6536 122.688 35.2234C122.715 34.7926 122.738 34.0641 122.74 33.6043C122.741 33.1447 122.723 32.3814 122.699 31.9089C122.667 31.2609 122.583 30.6443 122.359 29.4004C122.137 28.1728 121.998 27.5568 121.816 26.9902C121.681 26.5717 121.442 25.9038 121.284 25.5068C121.126 25.1091 120.845 24.4773 120.659 24.1019C120.473 23.7267 120.143 23.1315 119.926 22.7784C119.708 22.4255 119.312 21.8422 119.044 21.4815C118.777 21.1208 118.341 20.5755 118.075 20.2703C117.81 19.9644 117.225 19.3727 116.777 18.9553C116.242 18.457 115.583 17.9313 114.862 17.4266C114.257 17.0038 113.483 16.5017 113.143 16.3109C112.802 16.1206 112.188 15.8054 111.779 15.6113C111.369 15.4173 110.645 15.104 110.168 14.9146C109.691 14.7253 108.816 14.4296 108.223 14.2568C107.63 14.0845 106.711 13.8525 106.18 13.7416C105.65 13.6306 104.858 13.4891 104.421 13.4263C103.984 13.3641 103.19 13.2837 102.655 13.2477C102.121 13.2117 101.321 13.1776 100.877 13.1711C100.433 13.1653 99.8759 13.1644 99.6385 13.1698C99.4012 13.1759 98.8345 13.2026 98.38 13.2297C97.8471 13.2621 96.8799 13.3929 95.6598 13.5982C94.6182 13.7733 93.7414 13.9318 93.7109 13.9516Z" fill="#3FCD5F"/>
<path d="M165.52 21.9848C165.55 22.0039 166.012 22.1432 166.548 22.2943C167.083 22.4448 167.913 22.7077 168.393 22.878C168.873 23.0484 169.564 23.3122 169.929 23.465C170.293 23.6171 170.822 23.8519 171.104 23.9873C171.387 24.1222 171.911 24.3833 172.269 24.569C172.628 24.7541 173.273 25.1163 173.704 25.3744C174.134 25.6324 174.785 26.0408 175.151 26.2816C175.516 26.5224 176.207 27.0203 176.686 27.3886C177.165 27.7562 177.906 28.3641 178.332 28.7384C178.758 29.1133 179.115 29.4255 179.123 29.4326C179.132 29.4391 178.977 29.5241 178.78 29.6218C178.582 29.7188 178.176 29.9387 177.876 30.1097C177.576 30.2807 177.057 30.6365 176.723 30.8997C176.388 31.1629 175.862 31.64 175.554 31.9594C175.246 32.2787 174.737 32.8981 174.422 33.3351C174.107 33.7721 173.706 34.383 173.531 34.6922C173.356 35.0013 173.031 35.6396 172.808 36.1105C172.585 36.5813 172.253 37.3439 172.069 37.8043C171.884 38.2647 171.362 39.6898 170.907 40.9703C170.452 42.251 169.9 43.7542 169.68 44.3104C169.46 44.8666 169.127 45.6569 168.94 46.0661C168.753 46.4752 168.444 47.1023 168.255 47.4603C168.065 47.8181 167.718 48.4238 167.483 48.8077C167.248 49.1908 166.823 49.8112 166.54 50.1864C166.256 50.5608 165.83 51.0838 165.592 51.3477C165.355 51.6116 164.932 52.0421 164.652 52.304C164.372 52.5664 163.932 52.9469 163.675 53.1503C163.417 53.3536 162.844 53.7547 162.4 54.0417C161.957 54.3281 161.348 54.6901 161.048 54.8449C160.748 54.9997 160.2 55.2574 159.831 55.4178C159.462 55.5776 158.82 55.8184 158.404 55.953C157.988 56.0871 157.371 56.2637 157.033 56.3455C156.695 56.4273 155.875 56.5723 155.21 56.6686C154.546 56.7643 153.61 56.8564 153.13 56.8731C152.651 56.8898 151.98 56.8984 151.641 56.892C151.302 56.8862 150.844 56.8741 150.624 56.8656C150.404 56.857 149.814 56.8088 149.312 56.7578C148.811 56.7068 147.713 56.5395 146.871 56.3861C146.03 56.2327 144.877 55.9818 144.309 55.8291C143.741 55.6758 142.946 55.4447 142.543 55.3155C142.12 55.1788 141.733 55.0858 141.624 55.0935C141.506 55.1015 141.196 55.2763 140.797 55.5588C140.446 55.8073 139.959 56.1978 139.714 56.4258C139.469 56.6543 139.062 57.0691 138.809 57.3469C138.556 57.6247 138.103 58.185 137.803 58.5905C137.502 58.9959 137.145 59.5033 137.008 59.7173C135.884 61.4911 135.267 65.0409 134.619 65.8339C134.465 65.7449 134.255 65.5982 134.152 65.5085C134.048 65.4181 133.879 65.2082 133.775 65.0409C133.67 64.8742 133.548 64.5915 133.502 64.413C133.456 64.2345 133.411 63.8778 133.401 63.621C133.388 63.2602 133.425 62.977 133.56 62.3802C133.657 61.9548 133.831 61.3731 133.947 61.0875C134.064 60.802 134.256 60.3764 134.375 60.1426C134.493 59.9081 134.895 59.2278 135.267 58.6308C135.638 58.0337 136.195 57.1721 136.504 56.7166C136.812 56.2611 137.425 55.4096 137.866 54.825C138.307 54.2404 138.769 53.6538 138.892 53.523C139.014 53.392 139.583 52.741 140.155 52.0778C140.727 51.4139 141.724 50.2833 142.37 49.5652C143.017 48.8471 143.987 47.781 144.527 47.1968C145.066 46.6125 146.16 45.457 146.957 44.6298C147.754 43.8025 148.846 42.6883 149.384 42.1552C149.922 41.622 151.037 40.554 151.863 39.7827C152.689 39.0115 153.77 38.0351 154.264 37.613C154.759 37.1909 155.492 36.5844 155.892 36.2643C156.293 35.9443 156.925 35.4657 157.297 35.1999C157.668 34.9347 157.956 34.6935 157.937 34.6646C157.917 34.6357 157.687 34.6737 157.426 34.7482C157.165 34.8233 156.74 34.9744 156.482 35.0847C156.224 35.1945 155.778 35.4049 155.492 35.5522C155.205 35.6996 154.54 36.0909 154.012 36.4223C153.485 36.753 152.577 37.3846 151.995 37.8251C151.413 38.2655 150.517 38.9685 150.004 39.3873C149.491 39.8061 148.623 40.5419 148.075 41.0225C147.527 41.5031 146.66 42.2807 146.149 42.7512C145.639 43.2219 144.817 43.9932 144.323 44.4669C143.83 44.9405 142.856 45.894 142.16 46.5864C141.464 47.2787 140.392 48.3682 139.779 49.0074C139.166 49.6466 138.512 50.3374 138.327 50.5425L137.99 50.9155C137.642 49.7255 137.445 48.9657 137.327 48.4592C137.21 47.9526 137.047 47.1644 136.966 46.7071C136.885 46.2499 136.767 45.4621 136.704 44.9575C136.642 44.4528 136.569 43.6868 136.542 43.2566C136.515 42.8258 136.492 42.0973 136.491 41.6375C136.49 41.1779 136.508 40.4146 136.531 39.9421C136.564 39.2941 136.647 38.6775 136.872 37.4336C137.094 36.206 137.232 35.59 137.415 35.0234C137.549 34.6049 137.789 33.937 137.947 33.54C138.105 33.1423 138.386 32.5105 138.571 32.1351C138.758 31.7599 139.088 31.1647 139.305 30.8116C139.522 30.4587 139.919 29.8754 140.186 29.5148C140.454 29.154 140.889 28.6087 141.155 28.3035C141.421 27.9976 142.005 27.4059 142.454 26.9885C142.989 26.4902 143.648 25.9645 144.369 25.4598C144.973 25.037 145.747 24.5349 146.088 24.3441C146.428 24.1538 147.042 23.8386 147.452 23.6445C147.861 23.4505 148.586 23.1372 149.063 22.9478C149.539 22.7585 150.414 22.4628 151.007 22.29C151.6 22.1177 152.519 21.8857 153.05 21.7748C153.581 21.6638 154.373 21.5223 154.809 21.4595C155.246 21.3973 156.04 21.3169 156.575 21.2809C157.11 21.2449 157.91 21.2108 158.353 21.2043C158.797 21.1985 159.355 21.1976 159.592 21.203C159.829 21.2091 160.396 21.2358 160.851 21.2629C161.383 21.2953 162.351 21.4261 163.571 21.6314C164.612 21.8065 165.489 21.9651 165.52 21.9848Z" fill="#3FCD5F"/>
<path d="M234.076 126.605C234.797 126.454 236.272 126.405 237.354 126.496C238.435 126.588 240.057 126.991 240.959 127.398C241.86 127.804 243.237 128.715 244.02 129.427C244.803 130.138 245.862 131.38 246.37 132.193C246.881 133.006 247.55 134.553 247.862 135.635C248.291 137.135 248.379 138.299 248.238 140.551C248.133 142.173 247.74 144.461 247.36 145.631C246.979 146.801 245.99 149.014 245.164 150.547C244.338 152.081 243.224 154.585 242.689 156.119C242.155 157.653 240.762 160.822 239.592 163.166C238.422 165.509 236.544 168.826 235.417 170.541C234.289 172.255 232.477 174.759 231.388 176.112C230.297 177.463 227.947 179.97 226.164 181.684C224.381 183.398 221.523 185.836 219.812 187.111C218.105 188.383 215.597 190.11 214.247 190.949C214.237 190.955 214.226 190.961 214.217 190.967C212.853 191.805 210.152 193.204 208.183 194.08C206.2 194.965 203.031 196.207 201.136 196.843C199.242 197.478 196.148 198.337 194.253 198.753C192.36 199.172 190.77 199.52 190.72 199.53C190.674 199.571 191.092 204.138 191.654 209.707C192.167 214.758 192.654 220.246 192.816 222.651C176.025 238.966 153.11 249.013 127.849 249.013C118.844 249.013 110.138 247.736 101.901 245.355C101.563 244.978 101.25 244.609 101.001 244.285C100.244 243.295 99.1421 241.525 98.5555 240.352C97.9656 239.179 97.2049 237.114 96.8608 235.764C96.4904 234.298 95.8416 228.867 95.2615 222.326C94.7244 216.293 94.2135 211.278 94.1309 211.182C94.0448 211.094 93.6024 211.277 93.1507 211.591C92.695 211.906 91.8657 212.791 91.3087 213.558C90.7483 214.325 89.883 215.764 89.3783 216.754C88.8769 217.743 88.1492 219.589 87.7625 220.85C87.3791 222.112 87.0679 223.44 87.0711 223.8C87.0747 224.161 87.9072 225.269 88.9261 226.259C89.942 227.248 91.0431 228.651 91.3776 229.372C91.7347 230.152 91.9809 231.447 91.9875 232.568C91.994 234.308 91.912 234.518 90.9288 235.295C90.0376 235.999 89.637 236.107 88.4704 235.95C87.1536 235.773 87.0776 235.81 87.0776 236.583C87.0775 237.032 86.786 238.176 86.4289 239.123C86.4078 239.179 86.3846 239.238 86.3601 239.297C79.2723 235.769 72.6971 231.365 66.7759 226.228C67.6707 224.326 68.3885 222.665 68.3891 222.489C68.3893 222.309 68.9138 220.539 69.5528 218.556C70.1919 216.574 71.3948 213.476 72.2273 211.673C73.0597 209.871 74.554 207.141 75.547 205.61C76.54 204.08 78.6936 201.441 80.3323 199.753C81.9675 198.062 84.1177 196.129 85.111 195.45C86.104 194.775 87.9461 193.69 89.208 193.041C90.4696 192.395 92.387 191.638 93.4687 191.362C94.5503 191.087 97.9427 190.638 101.007 190.366C104.07 190.091 107.02 189.799 107.562 189.717C108.103 189.639 109.578 189.484 110.84 189.379C112.102 189.274 115.789 188.908 119.034 188.567C122.278 188.223 125.89 187.842 127.064 187.718C128.521 187.564 129.272 187.61 129.44 187.865C129.574 188.074 130.053 191.892 130.498 196.351C130.944 200.812 131.475 205.718 131.675 207.249C131.875 208.779 132.354 210.696 132.74 211.51C133.124 212.322 134.071 213.611 134.842 214.377C135.612 215.144 137.014 216.137 137.961 216.586C138.908 217.035 140.42 217.494 141.321 217.606C142.223 217.717 145.172 217.573 147.876 217.285C150.58 217 155.224 216.537 158.2 216.259C162.778 215.833 163.91 215.616 165.575 214.843C166.656 214.341 168.18 213.348 168.961 212.637C169.744 211.926 170.733 210.608 171.163 209.707C171.595 208.806 172.038 207.479 172.153 206.757C172.267 206.026 171.874 200.631 171.261 194.568C170.659 188.594 170.237 183.63 170.327 183.529C170.42 183.438 174.474 182.988 179.34 182.526C184.207 182.067 189.405 181.392 190.894 181.032C192.382 180.668 194.889 179.878 196.466 179.272C198.042 178.665 200.218 177.725 201.3 177.18C202.382 176.636 204.814 175.158 206.708 173.9C208.615 172.628 211.283 170.455 212.696 169.026C214.095 167.604 216.089 165.309 217.121 163.926C218.153 162.543 219.477 160.626 220.061 159.665C220.323 159.234 220.682 158.562 221.065 157.803C221.534 156.872 222.039 155.809 222.437 154.89C223.162 153.222 223.755 151.452 223.761 150.957C223.768 150.452 223.466 149.767 223.08 149.4C222.696 149.04 221.756 147.784 220.986 146.614C220.853 146.411 220.716 146.198 220.578 145.982C220.492 145.158 220.396 144.338 220.288 143.52C220.396 144.337 220.492 145.158 220.578 145.982C219.925 144.957 219.267 143.859 218.996 143.337C218.671 142.704 218.294 141.675 218.16 141.043C218.025 140.41 218.042 139.453 218.199 138.912C218.342 138.41 218.796 137.673 219.238 137.211C219.272 137.175 219.306 137.141 219.34 137.109C220.035 136.444 220.484 136.303 221.729 136.362C222.571 136.402 223.45 136.621 223.683 136.854C223.958 137.125 224.194 137.158 224.361 136.946C224.499 136.765 224.856 135.805 225.155 134.815C225.45 133.825 226.177 132.285 226.77 131.393C227.363 130.502 228.439 129.341 229.16 128.814C229.881 128.286 230.988 127.634 231.618 127.368C232.247 127.1 233.355 126.756 234.076 126.605ZM124.726 52.5C124.726 52.5 125.427 53.0161 125.841 54.0614C126.811 56.5117 131.155 65.7851 131.167 65.8103L133.03 62.6787C133.03 62.6787 134.976 58.0772 135.656 58.2986C136.092 58.4409 135.658 62.835 135.656 62.8591L135.032 68.0382C135.909 68.4338 136.707 68.9847 137.388 69.6654C138.059 70.3364 138.603 71.1218 138.998 71.9831C143.994 71.4635 151.367 70.7068 157.546 70.0806C159.431 69.8887 161.363 69.6895 163.251 69.4933L167.723 69.025C172.011 68.5719 175.607 68.18 177.211 67.9864C180.007 67.6521 183.914 67.3572 185.896 67.3342C188.207 67.308 190.21 67.4751 191.469 67.7995C192.55 68.0781 194.392 68.7568 195.565 69.3073C196.739 69.8546 198.338 70.7725 199.118 71.3427C199.902 71.9132 201.328 73.4109 202.281 74.6724C203.238 75.9342 204.402 77.7403 204.874 78.6875C205.342 79.6347 205.948 81.2574 206.22 82.293C206.492 83.3293 207.014 87.1999 207.378 90.8964C207.741 94.5901 208.253 99.3855 208.515 101.549C208.777 103.712 209.147 106.957 209.338 108.759C209.391 109.263 209.463 109.971 209.547 110.809V110.81C209.765 112.971 210.063 115.994 210.311 118.592C210.655 122.197 211.487 130.309 212.156 136.618C212.828 142.927 213.385 149.784 213.398 151.859C213.418 154.723 213.277 156.061 212.812 157.431C212.474 158.421 211.739 160.119 211.179 161.2C210.582 162.344 209.16 164.16 207.777 165.543C205.971 167.345 204.745 168.234 202.694 169.22C200.662 170.197 199.052 170.682 196.22 171.167C194.145 171.521 189.13 172.121 185.077 172.498C181.019 172.878 175.12 173.468 171.967 173.808C168.811 174.153 164.684 174.589 162.79 174.779C160.895 174.969 156.765 175.352 153.612 175.631C150.456 175.909 145.664 176.352 142.96 176.618C140.256 176.883 135.313 177.391 131.981 177.748C128.647 178.102 122.449 178.764 118.215 179.216C113.979 179.669 103.285 180.711 94.4525 181.537C85.6198 182.36 77.2126 183.113 75.7705 183.208C73.9813 183.329 72.3682 183.218 70.6903 182.854C69.3366 182.563 67.124 181.792 65.7739 181.137C63.9062 180.235 62.6828 179.311 60.6806 177.295C59.1242 175.723 57.6264 173.835 57.0167 172.671C56.4497 171.59 55.6725 169.525 55.2858 168.083C54.9029 166.643 54.7069 165.378 54.8532 165.27C55.0008 165.166 55.7879 164.893 56.5971 164.667C57.4064 164.441 58.6617 163.92 59.3827 163.507C60.1037 163.094 61.4838 161.891 62.4507 160.833C63.5059 159.676 64.7844 157.725 65.6497 155.956C66.4428 154.333 67.3868 151.826 67.7474 150.384C68.1079 148.942 68.5662 146.507 68.7695 144.976C68.9759 143.416 69.0549 140.528 68.9533 138.421C68.8517 136.346 68.4715 132.954 68.1077 130.883C67.7472 128.808 67.0162 125.786 66.4853 124.164C65.9577 122.542 65.1842 120.476 64.7679 119.575C64.3516 118.674 63.3223 116.904 62.4768 115.642C61.6312 114.38 60.0709 112.525 59.0124 111.522C57.9539 110.519 56.4234 109.316 55.6139 108.851C54.8043 108.385 53.6208 107.9 52.9916 107.769C52.3621 107.641 51.1426 107.553 50.2875 107.576C48.8891 107.608 48.7192 107.546 48.5113 106.772V106.771C48.506 106.752 48.5006 106.731 48.4952 106.711C48.3641 106.216 48.256 103.449 48.2495 100.565C48.2429 97.0229 48.3904 94.7904 48.7017 93.6824C48.954 92.7812 49.5279 91.3063 49.9769 90.405C50.4258 89.5038 51.1665 88.2483 51.6254 87.6189C52.0843 86.9864 53.2806 85.6914 54.2834 84.7344C55.2861 83.7809 56.7708 82.6144 57.5804 82.1423C58.39 81.6703 59.9767 80.9394 61.104 80.5199C62.2316 80.0971 64.7389 79.5396 66.6757 79.2774C68.6125 79.0152 71.1563 78.7168 72.3297 78.6152C72.8973 78.5644 74.2594 78.4338 76.0136 78.2627L79.0994 77.9595C80.1991 77.8508 81.3497 77.7365 82.4897 77.6223C86.9044 77.1798 95.2394 76.3734 101.008 75.8261C106.776 75.2821 112.97 74.6892 114.773 74.5121C116.576 74.3319 120.191 73.9616 122.803 73.6896C123.146 73.6535 123.54 73.6113 123.976 73.5654C124.076 73.1171 124.215 72.677 124.391 72.2506C124.792 71.284 125.379 70.4053 126.119 69.6654C126.566 69.2185 127.064 68.8275 127.601 68.4996L123.165 53.3922L124.726 52.5ZM48.5666 113.206C49.1073 113.032 50.0677 112.97 50.697 113.065C51.3261 113.16 52.3488 113.485 52.9651 113.783C53.5779 114.084 54.8888 115.216 55.8753 116.297C56.865 117.379 58.1864 119.296 58.819 120.558C59.4482 121.819 60.3 123.737 60.7098 124.819C61.1195 125.9 61.8536 128.336 62.3452 130.227C63.0695 133.016 63.2568 134.54 63.3355 138.257C63.3912 140.78 63.2892 143.73 63.1155 144.812C62.9417 145.893 62.568 147.739 62.2829 148.909C61.9977 150.079 61.2935 152.072 60.7167 153.333C60.1399 154.595 59.1596 156.191 58.5402 156.883C57.9239 157.571 56.8258 158.42 56.1048 158.761C55.3838 159.105 54.276 159.387 53.6469 159.39C53.0174 159.39 51.7618 159.049 50.8608 158.63C49.8514 158.161 48.5304 157.105 47.4195 155.88C46.4265 154.785 45.0664 152.809 44.3978 151.481C43.726 150.157 42.8733 148.188 42.5062 147.106C42.1358 146.024 41.5101 143.517 41.1103 141.534C40.527 138.618 40.3923 136.864 40.412 132.357C40.4316 127.412 40.5334 126.418 41.3068 123.508C41.7853 121.705 42.549 119.493 42.998 118.591C43.4502 117.69 44.1482 116.582 44.5546 116.13C44.9577 115.678 45.807 114.904 46.4363 114.416C47.0653 113.924 48.0257 113.38 48.5666 113.206Z" fill="#E2B358"/>
<path d="M103.754 245.869C117.353 245.863 135.138 245.98 145.627 246.149C147.273 246.177 148.913 246.206 150.522 246.234C148.692 246.691 146.84 247.095 144.968 247.442C136.141 247.35 124.865 247.298 109.828 247.273C107.778 246.871 105.753 246.403 103.754 245.869ZM96.6013 234.406C103.919 234.473 110.64 234.547 114.45 234.611C121.005 234.721 129.837 234.971 134.073 235.166C138.31 235.364 144.912 235.767 148.745 236.061C152.577 236.354 157.694 236.758 160.115 236.96C162.535 237.158 165.836 237.407 167.45 237.514C168.728 237.595 170.649 237.714 172.194 237.808C171.488 238.19 170.776 238.564 170.058 238.929C166.533 238.758 163.277 238.552 159.931 238.296C153.373 237.797 145.946 237.224 143.426 237.019C140.903 236.817 136.612 236.552 133.89 236.431C131.165 236.314 126.793 236.124 124.17 236.01C122.386 235.932 111.449 235.814 96.8442 235.705C96.7725 235.408 96.6904 234.968 96.6013 234.406ZM80.706 234.285C84.2269 234.305 88.0222 234.334 91.793 234.364C91.644 234.693 91.3837 234.932 90.9254 235.295C90.7396 235.441 90.5742 235.561 90.4196 235.659C86.9467 235.635 83.3294 235.613 79.629 235.592C78.9157 235.16 78.2083 234.72 77.5077 234.269C78.6015 234.274 79.6703 234.279 80.706 234.285ZM88.2285 225.534C88.4434 225.774 88.6773 226.021 88.9229 226.259C89.1256 226.457 89.3302 226.672 89.533 226.894C81.1 226.916 73.8487 226.935 67.6137 226.947C67.3322 226.709 67.051 226.47 66.7724 226.228C66.8777 226.004 66.9784 225.782 67.0779 225.567C73.1116 225.556 80.1103 225.544 88.2285 225.534ZM189.875 225.382C189.395 225.811 188.91 226.233 188.421 226.652C169.389 226.684 143.743 226.742 117.293 226.817C109.406 226.839 102.226 226.858 95.6902 226.876C95.6454 226.436 95.6018 225.985 95.557 225.526C100.631 225.52 106.093 225.513 111.974 225.507C141.674 225.473 170.839 225.425 189.875 225.382ZM102.713 214.867C110.132 215.266 116.222 215.412 136.097 215.428C136.731 215.895 137.418 216.33 137.958 216.586C138.262 216.731 138.626 216.874 139.008 217.009C132.369 217 127.174 216.936 122.886 216.817C115.32 216.611 107.563 216.355 105.648 216.248C103.782 216.148 98.8918 215.906 94.6368 215.703C94.5925 215.254 94.5528 214.83 94.5126 214.436C97.0926 214.57 99.9648 214.72 102.713 214.867ZM192.308 216.574C186.739 216.614 180.272 216.677 172.585 216.768C164.257 216.868 157.107 216.934 150.915 216.972C153.354 216.725 156.165 216.449 158.197 216.259C161.429 215.958 162.943 215.759 164.14 215.398C165.802 215.394 167.516 215.393 169.284 215.389C177.715 215.371 185.362 215.363 192.195 215.364C192.233 215.774 192.272 216.178 192.308 216.574ZM72.2706 213.305C74.3869 213.404 77.5227 213.569 79.2392 213.668C80.9521 213.767 84.2532 213.936 86.5749 214.039C87.4241 214.077 88.9366 214.151 90.8348 214.247C90.589 214.626 90.3241 215.056 90.0742 215.484C86.2247 215.298 81.8311 215.083 78.872 214.934C76.8387 214.829 73.9912 214.679 71.0223 214.518C71.1921 214.09 71.3613 213.668 71.5281 213.267C71.7885 213.28 72.0373 213.294 72.2706 213.305ZM170.311 211.075C176.557 211.163 183.919 211.259 191.813 211.356C191.856 211.797 191.9 212.239 191.942 212.678C183.783 212.591 175.865 212.489 169.214 212.387C169.578 212.018 169.966 211.551 170.311 211.075ZM79.2392 203.95C85.9988 204.35 94.4162 204.842 97.9448 205.044C101.477 205.242 108.409 205.605 113.35 205.844C116.49 205.998 123.287 206.125 131.546 206.201C131.597 206.634 131.638 206.99 131.672 207.249C131.682 207.325 131.694 207.403 131.705 207.481C126.7 207.417 122.14 207.335 119.035 207.242C112.176 207.04 105.659 206.809 104.547 206.729C103.439 206.644 100.054 206.497 97.0283 206.394C94.0023 206.295 92.1022 206.281 92.8101 206.361C93.5181 206.446 95.8286 206.677 97.9448 206.879C100.065 207.081 106.667 207.653 112.616 208.148C118.569 208.647 127.152 209.3 131.689 209.605C131.835 209.615 131.983 209.623 132.131 209.633C132.256 210.136 132.393 210.6 132.526 210.977C129.611 210.78 126.353 210.555 123.803 210.372C119.567 210.064 114.451 209.653 112.433 209.455C110.416 209.26 104.888 208.765 100.146 208.358C95.4034 207.95 89.7105 207.452 87.4914 207.25C85.2723 207.048 80.156 206.632 76.1216 206.324C75.8112 206.301 75.483 206.277 75.1398 206.251C75.2807 206.02 75.4172 205.806 75.5441 205.61C75.8719 205.105 76.3274 204.48 76.8477 203.808C77.6424 203.855 78.4426 203.902 79.2392 203.95ZM191.252 205.682C191.291 206.083 191.333 206.496 191.375 206.921C188.155 207.025 184.267 207.148 180.654 207.253C178.43 207.318 175.412 207.377 171.998 207.429C172.066 207.176 172.12 206.946 172.15 206.758C172.167 206.648 172.171 206.435 172.166 206.131C178.566 206.053 183.997 205.952 187.073 205.84C188.396 205.793 189.808 205.738 191.252 205.682ZM202.333 196.419C201.898 196.577 201.493 196.722 201.133 196.843C200.161 197.169 198.872 197.552 197.593 197.906C197.194 197.914 196.804 197.924 196.426 197.931C191.745 198.028 181.65 197.998 171.575 197.874C171.534 197.425 171.492 196.967 171.447 196.503C180.081 196.553 189.307 196.548 197.344 196.475C199.013 196.459 200.681 196.44 202.333 196.419ZM86.5767 194.52C90.2561 194.612 93.5967 194.699 96.1109 194.772C103.072 194.974 114.211 195.305 120.869 195.503C123.239 195.573 126.596 195.661 130.433 195.758C130.453 195.954 130.475 196.152 130.495 196.351C130.518 196.581 130.542 196.812 130.565 197.044C129.62 197.019 128.766 196.996 128.021 196.974C121.265 196.78 109.957 196.445 102.896 196.236C98.2921 196.1 91.3203 195.912 84.7056 195.743C84.8541 195.629 84.9897 195.531 85.1081 195.45C85.4964 195.186 86.0142 194.859 86.5767 194.52ZM171.852 188.236C175.886 188.298 189.091 188.35 201.195 188.35C206.932 188.35 212.954 188.334 218.153 188.309C217.469 188.795 216.758 189.288 216.098 189.735C211.001 189.783 205.102 189.818 201.011 189.818C195.264 189.818 185.936 189.759 180.288 189.686C177.919 189.655 174.526 189.585 170.767 189.498C170.726 189.051 170.687 188.621 170.65 188.212C171.077 188.22 171.479 188.23 171.852 188.236ZM127.06 187.717C128.517 187.564 129.268 187.61 129.436 187.865C129.449 187.884 129.463 187.934 129.481 188.012C129.232 188.001 128.989 187.989 128.755 187.979C128.062 187.949 127.062 187.901 125.861 187.843C126.371 187.79 126.784 187.747 127.06 187.717ZM229.434 178.327C229.02 178.775 228.581 179.24 228.139 179.699C222.916 180.017 217.471 180.348 214.398 180.537C210.129 180.8 200.69 180.978 191.042 180.992C192.099 180.725 193.599 180.272 194.926 179.822C199.434 179.759 206.011 179.572 210.364 179.374C215.205 179.157 220.406 178.896 221.917 178.797C223 178.729 226.004 178.541 229.434 178.327ZM59.9833 175.319C64.4214 175.524 71.6032 175.854 75.9385 176.052C80.2776 176.25 87.8697 176.585 92.8101 176.79C97.7543 176.996 105.592 177.326 110.232 177.521C114.872 177.715 121.64 177.961 125.271 178.071C126.196 178.098 127.153 178.13 128.089 178.163C125.182 178.472 121.758 178.836 118.986 179.133C114.502 178.953 109.456 178.752 106.014 178.614C101.073 178.416 93.3972 178.097 88.9591 177.902C84.5211 177.708 77.1776 177.384 72.6368 177.179C68.1001 176.977 62.6539 176.721 60.5336 176.611C60.3731 176.602 60.1939 176.593 59.9987 176.583C59.5962 176.149 59.2066 175.703 58.8447 175.264C59.2263 175.282 59.6068 175.302 59.9833 175.319ZM58.9063 163.755C61.6955 163.935 64.5663 164.119 67.3191 164.291C77.0018 164.9 87.7297 165.561 91.1593 165.766C94.5886 165.972 100.45 166.309 104.18 166.514C107.914 166.724 113.856 167.054 117.385 167.252C120.917 167.45 126.94 167.773 130.773 167.968C134.605 168.166 140.467 168.419 143.793 168.533C147.124 168.647 151.25 168.816 152.963 168.908C154.68 168.999 160.537 169.271 165.984 169.506C171.431 169.745 187.03 169.954 200.644 169.968C200.749 169.968 200.853 169.967 200.958 169.967C199.601 170.481 198.212 170.825 196.217 171.167C196.121 171.183 196.019 171.198 195.912 171.215C185.438 171.226 178.144 171.093 169.101 170.768C160.122 170.441 148.818 170.016 143.976 169.818C139.135 169.623 131.957 169.293 128.021 169.091C124.086 168.885 116.166 168.467 110.415 168.162C104.668 167.854 95.7549 167.351 90.609 167.047C85.4666 166.738 74.8192 166.082 66.9519 165.579C63.4547 165.357 59.5553 165.103 55.9302 164.864C56.1405 164.798 56.3662 164.73 56.5938 164.667C57.2462 164.485 58.1878 164.109 58.9063 163.755ZM236.03 169.562C235.808 169.924 235.601 170.255 235.414 170.54C235.352 170.635 235.285 170.731 235.219 170.83C230.396 170.922 220.714 171.044 210.364 171.135C210.36 171.135 210.355 171.135 210.351 171.135C210.837 170.729 211.303 170.325 211.723 169.944C221.736 169.89 230.935 169.749 236.03 169.562ZM220.267 159.578C225.199 159.66 232.548 159.739 241.166 159.808C240.972 160.242 240.773 160.683 240.57 161.12C229.85 160.989 221.67 160.88 219.3 160.832C219.605 160.377 219.871 159.973 220.058 159.665C220.075 159.637 220.091 159.606 220.11 159.576C220.162 159.577 220.215 159.578 220.267 159.578ZM71.9034 156.423C75.0321 156.526 81.6344 156.691 86.5749 156.794C91.5189 156.893 97.2109 157.058 99.2285 157.153C101.246 157.253 107.107 157.421 112.249 157.531C117.395 157.642 129.606 157.894 139.392 158.096C149.178 158.294 165.683 158.617 176.07 158.808C184.534 158.966 199.298 159.222 212.006 159.437C211.817 159.869 211.619 160.301 211.429 160.691C207.091 160.618 201.81 160.535 196.976 160.467C188.405 160.342 178.501 160.177 174.969 160.092C171.441 160.012 163.023 159.851 156.264 159.737C149.504 159.627 141.005 159.45 137.374 159.344C133.743 159.241 123.509 158.995 114.633 158.797C105.757 158.603 92.718 158.28 85.6575 158.082C80.0125 157.923 71.5495 157.676 64.8252 157.477C65.0699 157.058 65.3011 156.634 65.5123 156.217C67.8212 156.291 70.1786 156.366 71.9034 156.423ZM47.1775 155.603C51.5214 155.758 56.2575 155.919 59.1919 156.013C58.9531 156.365 58.7286 156.668 58.5365 156.882C58.4222 157.01 58.2896 157.141 58.1476 157.276C55.0217 157.177 51.6155 157.061 48.4865 156.947C48.1207 156.614 47.7572 156.256 47.4159 155.88C47.3377 155.794 47.2597 155.7 47.1775 155.603ZM223.227 152.877C228.747 152.962 236.085 153.069 243.884 153.177C243.68 153.632 243.483 154.09 243.302 154.528C240.573 154.493 238.168 154.458 236.222 154.419C232.088 154.337 227.323 154.245 222.74 154.157C222.92 153.715 223.084 153.28 223.227 152.877ZM67.9237 149.614C70.2046 149.68 72.6498 149.75 74.6539 149.806C78.4868 149.912 85.174 150.088 89.5094 150.195C93.8487 150.305 105.398 150.559 115.184 150.761C124.969 150.959 140.07 151.281 148.745 151.472C157.419 151.659 173.759 151.983 185.056 152.188C195.445 152.377 207.587 152.601 213.394 152.712C213.391 153.177 213.38 153.597 213.365 153.981C211.061 153.939 209.027 153.901 207.43 153.873C201.176 153.763 186.816 153.509 175.519 153.307C164.223 153.109 147.802 152.779 139.025 152.577C130.251 152.372 115.892 152.041 107.114 151.839C98.341 151.641 83.7317 151.303 74.6539 151.09C72.4816 151.04 70.0825 150.983 67.5956 150.923C67.6516 150.731 67.7026 150.551 67.7442 150.384C67.8026 150.151 67.8618 149.891 67.9237 149.614ZM43.3863 149.006C50.7575 149.157 58.9551 149.349 62.1364 149.442C62.0205 149.848 61.8738 150.306 61.7121 150.777C55.6095 150.624 49.6219 150.469 45.6781 150.357C45.057 150.339 44.4389 150.322 43.8278 150.305C43.6305 149.878 43.4334 149.433 43.2494 149.003C43.2948 149.004 43.3406 149.005 43.3863 149.006ZM221.474 147.337C226.003 147.417 230.945 147.462 236.038 147.462C239.8 147.46 243.358 147.436 246.669 147.395C246.478 147.84 246.267 148.309 246.048 148.772C241.991 148.846 237.794 148.894 234.572 148.896C231.066 148.896 226.599 148.841 222.521 148.758C222.213 148.369 221.841 147.865 221.474 147.337ZM87.8586 139.586C101.829 139.354 109.363 139.384 114.633 139.693C118.668 139.927 125.354 140.36 129.488 140.653C133.621 140.947 137.997 141.274 139.208 141.381C140.418 141.487 148.011 142.147 156.08 142.852C164.149 143.556 172.401 144.298 174.419 144.5C176.436 144.705 182.129 145.193 187.073 145.593C192.017 145.99 201.011 146.569 207.063 146.885C208.857 146.98 210.893 147.063 213.122 147.135C213.158 147.603 213.19 148.051 213.219 148.472C208.585 148.273 202.899 147.982 199.911 147.788C196.584 147.571 190.642 147.15 186.706 146.852C182.771 146.559 176.088 145.99 171.852 145.59C167.615 145.19 162.334 144.698 160.115 144.493C157.895 144.291 153.193 143.876 149.661 143.575C146.133 143.274 142.252 142.947 141.042 142.848C139.831 142.749 136.78 142.507 134.256 142.305C131.736 142.103 125.545 141.678 120.502 141.359C112.638 140.86 106.132 140.811 74.8379 141.035C72.8658 141.049 70.9115 141.061 68.9889 141.072C68.9942 140.64 68.9935 140.206 68.988 139.784C75.8075 139.742 82.624 139.674 87.8586 139.586ZM40.7927 139.789C43.1258 139.791 45.9719 139.8 49.4384 139.817C53.3485 139.836 58.2199 139.834 63.3457 139.814C63.345 140.248 63.3411 140.682 63.333 141.103C54.299 141.147 46.3406 141.158 41.032 141.139C40.9412 140.668 40.8606 140.224 40.7927 139.789ZM218.116 139.31C222.358 139.35 227.013 139.372 231.546 139.369C238.187 139.365 244.202 139.342 248.289 139.311C248.28 139.688 248.263 140.098 248.235 140.551C248.234 140.563 248.232 140.574 248.231 140.585C241.534 140.728 234.232 140.823 228.887 140.823C225.498 140.823 221.754 140.787 218.106 140.727C218.051 140.276 218.055 139.742 218.116 139.31ZM72.1781 131.171C95.942 131.211 118.837 131.417 123.62 131.637C128.362 131.854 134.304 132.195 136.824 132.397C139.347 132.599 145.286 133.182 150.028 133.696C154.771 134.21 161.784 135.024 165.616 135.512C169.449 135.997 175.637 136.72 179.37 137.123C183.104 137.523 188.382 138.023 191.107 138.236C193.833 138.445 199.112 138.79 202.845 138.999C204.51 139.092 207.998 139.175 212.421 139.24C212.467 139.699 212.511 140.158 212.554 140.613C208.87 140.523 205.569 140.412 203.212 140.287C197.666 139.994 190.32 139.498 186.89 139.186C183.461 138.874 178.428 138.367 175.703 138.055C172.977 137.743 168.191 137.164 165.066 136.764C161.941 136.364 155.75 135.637 151.312 135.153C146.874 134.665 142.252 134.173 141.042 134.063C139.831 133.949 136.45 133.688 133.523 133.479C130.596 133.27 124.163 132.944 119.219 132.753C114.278 132.562 94.1413 132.367 74.4708 132.32C72.4008 132.315 70.3472 132.308 68.3262 132.302C68.2686 131.9 68.2091 131.517 68.1504 131.166C69.4519 131.167 70.7941 131.169 72.1781 131.171ZM225.371 134.183C227.337 134.324 229.317 134.462 230.721 134.554C233.141 134.709 240.603 134.862 247.617 134.901C247.709 135.159 247.793 135.407 247.859 135.635C247.927 135.874 247.986 136.105 248.037 136.333C247.002 136.32 245.935 136.305 244.842 136.283C238.386 136.158 229.888 135.81 225.952 135.516C225.632 135.492 225.299 135.464 224.954 135.437C225.02 135.236 225.088 135.027 225.152 134.815C225.209 134.622 225.285 134.409 225.371 134.183ZM86.3918 120.286C98.0699 120.279 106.293 120.455 111.883 120.829C116.423 121.137 121.786 121.545 123.803 121.739C125.82 121.934 131.102 122.514 135.54 123.028C139.978 123.545 145.259 124.202 147.277 124.492C149.294 124.778 156.971 125.857 164.333 126.889C171.694 127.916 180.526 129.153 183.956 129.634C187.385 130.114 193.657 130.918 197.893 131.42C202.129 131.923 207.906 132.588 210.73 132.896C211.056 132.932 211.405 132.966 211.773 133.004C211.819 133.445 211.865 133.883 211.911 134.316C208.213 133.942 200.924 133.11 194.959 132.371C188.504 131.571 182.148 130.749 180.838 130.536C179.529 130.327 173.832 129.512 168.184 128.723C162.535 127.938 155.439 126.954 152.413 126.543C149.387 126.128 143.694 125.384 139.758 124.885C135.823 124.386 130.295 123.728 127.471 123.424C124.647 123.119 118.705 122.577 114.267 122.217C107.819 121.692 102.295 121.563 86.7581 121.578C79.9411 121.585 72.0028 121.673 65.6537 121.799C65.4814 121.334 65.3128 120.891 65.1579 120.505C70.9396 120.381 79.2931 120.292 86.3918 120.286ZM40.4165 131.19C45.4999 131.158 52.6686 131.15 62.5742 131.159C62.6675 131.551 62.7482 131.923 62.8199 132.287C53.7501 132.258 45.7232 132.221 40.4102 132.186C40.4117 131.835 40.4138 131.503 40.4165 131.19ZM229.374 128.659C231.677 128.696 234.115 128.717 236.406 128.716C238.578 128.715 240.873 128.693 243.052 128.66C243.414 128.921 243.75 129.185 244.017 129.427C244.215 129.607 244.431 129.82 244.651 130.052C240.986 130.153 236.574 130.163 232.004 130.071C230.657 130.042 229.275 130.004 227.919 129.962C228.35 129.496 228.798 129.077 229.157 128.814C229.226 128.763 229.299 128.712 229.374 128.659ZM209.709 112.47C208.249 112.82 206.853 113.18 205.779 113.49C203.256 114.217 199.544 115.479 197.527 116.294C195.509 117.112 192.784 118.418 191.475 119.204C190.162 119.989 188.761 120.888 188.357 121.2C187.73 121.692 187.701 121.82 188.174 122.107C188.475 122.29 189.795 122.628 191.107 122.852C192.417 123.079 195.968 123.898 198.993 124.668C202.019 125.443 206.887 126.507 209.814 127.035C210.236 127.112 210.695 127.188 211.177 127.266C211.224 127.717 211.271 128.174 211.319 128.635C210.645 128.53 210.007 128.426 209.447 128.327C207.125 127.92 201.927 126.782 197.893 125.799C193.859 124.812 189.484 123.788 188.174 123.516C186.278 123.124 185.767 122.874 185.679 122.291C185.595 121.74 186.274 121.068 188.43 119.56C190.004 118.463 192.447 117.038 193.859 116.4C195.271 115.761 198.077 114.646 200.094 113.92C202.111 113.193 205.742 112.099 208.163 111.494C208.594 111.386 209.071 111.272 209.577 111.154C209.619 111.568 209.663 112.01 209.709 112.47ZM210.629 121.859C210.626 121.887 210.628 121.913 210.636 121.94C210.695 122.526 210.759 123.146 210.825 123.794C210.402 123.641 210.074 123.499 209.906 123.388C209.451 123.09 209.081 122.599 209.081 122.294C209.081 121.993 209.616 121.175 210.273 120.481C210.331 120.42 210.398 120.354 210.474 120.284C210.522 120.772 210.573 121.299 210.629 121.859ZM58.881 120.693C59.0684 121.073 59.2717 121.505 59.4766 121.951C58.4915 121.981 57.6135 122.012 56.8657 122.044C52.4076 122.238 46.2675 122.472 41.5479 122.637C41.6827 122.176 41.8287 121.708 41.9776 121.255C42.738 121.232 43.4899 121.209 44.2113 121.189C47.8554 121.083 54.1326 120.871 58.881 120.693ZM54.4063 114.862C54.8104 115.218 55.2344 115.626 55.6247 116.035C54.5801 116.113 53.6833 116.182 53.0138 116.239C51.1598 116.392 47.5444 116.728 43.8559 117.089C44.1145 116.686 44.3639 116.338 44.5512 116.13C44.6682 115.999 44.8232 115.841 44.9991 115.67C48.1814 115.373 51.5742 115.081 54.4063 114.862ZM209.144 107.043C206.838 107.631 204.766 108.166 203.395 108.532C200.369 109.339 196.492 110.334 194.775 110.741C193.059 111.149 191.328 111.563 190.924 111.666C190.521 111.765 187.964 112.331 185.239 112.921C182.514 113.512 178.142 114.323 175.519 114.723C172.897 115.123 168.69 115.648 166.167 115.887C163.075 116.184 157.584 116.257 149.295 116.114C142.535 115.997 134.862 115.74 132.239 115.538C129.617 115.34 123.674 114.98 119.035 114.742C113.492 114.456 104.558 114.382 92.9933 114.525C83.3102 114.646 71.4263 114.991 66.5848 115.292C65.2583 115.376 63.837 115.468 62.4183 115.562C62.1672 115.193 61.8584 114.779 61.5226 114.351C65.3403 114.087 69.0431 113.844 71.1701 113.725C74.5003 113.538 79.9466 113.325 83.2733 113.251C86.6 113.178 94.0276 113.119 99.7787 113.119C105.53 113.119 113.533 113.244 117.568 113.395C121.602 113.545 128.289 113.894 132.422 114.176C136.556 114.455 141.677 114.745 143.793 114.819C145.91 114.892 151.605 114.917 156.447 114.873C162.686 114.815 166.904 114.58 170.935 114.059C174.06 113.656 179.18 112.815 182.305 112.187C185.43 111.56 191.54 110.165 195.876 109.086C199.764 108.118 205.344 106.694 209 105.739C209.051 106.188 209.098 106.627 209.144 107.043ZM208.174 98.5737C208.048 98.5941 207.922 98.6141 207.797 98.6344C202.955 99.4197 196.434 100.477 193.309 100.987C190.184 101.493 184.982 102.239 181.755 102.642C178.527 103.046 172.669 103.699 168.734 104.092C164.799 104.488 160.262 104.913 158.648 105.038C157.034 105.163 154.888 105.332 153.879 105.413C152.871 105.493 150.644 105.648 148.928 105.758C147.211 105.872 144.409 106.044 142.693 106.151C140.976 106.253 135.037 106.499 129.488 106.697C123.942 106.895 112.884 107.053 104.914 107.053C96.9478 107.053 85.7237 106.892 79.9726 106.697C74.2216 106.499 67.7884 106.253 65.6682 106.143C63.5519 106.037 59.176 105.788 55.9483 105.589C54.2205 105.485 51.408 105.288 48.3469 105.064C48.3277 104.669 48.3096 104.221 48.2953 103.737C54.9794 104.213 64.3927 104.792 70.4367 105.094C79.0156 105.523 89.3661 105.71 104.73 105.714C120.597 105.717 129.91 105.545 138.107 105.104C144.361 104.763 150.553 104.404 151.862 104.301C153.172 104.198 155.156 104.033 156.264 103.93C157.371 103.831 162.737 103.328 168.184 102.818C173.63 102.304 181.964 101.325 186.706 100.639C191.449 99.9525 199.368 98.7194 204.312 97.901C205.449 97.712 206.713 97.5063 208.034 97.2936C208.082 97.7349 208.129 98.1635 208.174 98.5737ZM207.161 88.8845C207.212 89.3382 207.261 89.7976 207.308 90.2571C201.711 91.4099 194.463 92.9111 190.191 93.8016C185.349 94.8145 179.243 95.9778 176.62 96.3925C173.997 96.8035 169.871 97.3835 167.45 97.6771C165.03 97.9707 161.648 98.312 159.931 98.4331C158.215 98.5579 155.989 98.7231 154.98 98.8075C153.971 98.8883 150.67 99.0643 147.644 99.1965C144.618 99.3286 135.13 99.4679 126.554 99.5083C117.983 99.545 104.283 99.369 96.1109 99.1158C87.9428 98.8589 77.7908 98.481 73.5543 98.2682C69.3179 98.0553 62.8802 97.7176 59.249 97.5157C56.0975 97.3405 51.5181 97.0627 48.3179 96.8612C48.341 96.3847 48.3694 95.953 48.404 95.5648C51.2759 95.761 53.8929 95.9333 55.5811 96.0363C59.0105 96.2418 65.6128 96.5948 70.2526 96.815C74.8924 97.0388 84.3855 97.4347 91.3433 97.6952C99.2659 97.9925 112.705 98.1249 127.288 98.0515C140.099 97.9854 151.817 97.8308 153.329 97.7097C154.844 97.5886 159.382 97.1633 163.416 96.7633C167.451 96.3633 172.318 95.7798 174.236 95.4642C176.154 95.1486 180.361 94.407 183.589 93.8125C186.816 93.2217 190.447 92.4988 191.658 92.2052C192.868 91.9153 196.665 91.0861 200.094 90.3595C202.365 89.8783 205.05 89.3188 207.161 88.8845ZM205.061 79.093C205.238 79.486 205.424 79.944 205.599 80.4093C202.416 80.8098 197.748 81.4262 193.859 81.9667C188.816 82.664 183.864 83.394 182.855 83.5922C181.846 83.7867 176.73 84.5283 171.485 85.2403C166.241 85.9485 159.888 86.767 157.364 87.057C154.844 87.3469 151.044 87.7534 148.928 87.9626C146.811 88.1718 142.19 88.5828 138.658 88.8764C135.129 89.17 128.854 89.6035 124.72 89.831C120.209 90.0805 112.877 90.1616 106.381 90.0295C100.432 89.9084 90.1144 89.7243 83.4573 89.6252C76.8002 89.5224 66.7314 89.2731 61.083 89.0713C58.0332 88.9603 54.3452 88.7865 50.9777 88.6044C51.2131 88.2181 51.4399 87.8691 51.6223 87.619C51.6824 87.5361 51.7547 87.4414 51.838 87.338C56.2864 87.5687 61.6484 87.7996 65.6682 87.9227C71.4194 88.0989 81.3228 88.3043 87.6755 88.385C94.0319 88.4658 105.171 88.5319 112.433 88.5319C119.695 88.5319 127.537 88.4104 129.855 88.2636C132.173 88.1168 136.138 87.8309 138.658 87.6254C141.181 87.4162 144.978 87.0821 147.094 86.8766C149.21 86.6711 152.185 86.3413 153.696 86.1468C155.211 85.9523 158.673 85.526 161.398 85.2067C164.123 84.8875 169.735 84.1431 173.869 83.5559C178.002 82.9687 185.679 81.8456 190.924 81.0566C196.169 80.2676 201.286 79.5223 202.295 79.4012C202.742 79.3476 203.751 79.2356 205.061 79.093ZM144 71.4663C145.844 71.9804 147.739 72.5272 149.295 73.001C152.622 74.0139 156.543 75.3203 158.006 75.9074C159.653 76.5643 160.665 77.1816 160.665 77.5229C160.665 77.8274 160.294 78.3002 159.84 78.579C159.385 78.8542 158.274 79.2581 157.364 79.4746C156.455 79.6875 154.147 80.1174 152.229 80.422C150.31 80.7266 145.113 81.3056 140.676 81.7093C136.238 82.1129 128.48 82.734 123.437 83.0863C117.704 83.4863 110.005 83.7246 102.896 83.7209C95.7956 83.7172 88.2914 83.479 82.9071 83.0863C78.1647 82.7414 72.0614 82.3008 69.3361 82.1136C66.6623 81.9261 62.0729 81.6068 59.0432 81.3938C59.7318 81.0717 60.4851 80.7491 61.1011 80.5199C61.2863 80.4505 61.5092 80.3789 61.7601 80.3041C64.2106 80.4768 66.9556 80.669 69.3361 80.8326C73.8768 81.1409 78.909 81.4751 80.5229 81.5742C82.1366 81.6696 84.447 81.8341 85.6575 81.9368C86.8679 82.0432 91.3243 82.2818 95.5606 82.469C100.384 82.6818 105.937 82.6782 110.415 82.4581C114.351 82.2672 121.445 81.8562 126.187 81.5479C130.93 81.236 136.541 80.8178 138.658 80.616C140.774 80.4105 143.335 80.1613 144.343 80.0548C145.352 79.952 148.077 79.6214 150.395 79.3242C152.712 79.0233 155.478 78.5792 156.538 78.3333C157.598 78.0912 158.467 77.765 158.464 77.6144C158.464 77.464 158.174 77.2692 157.822 77.1811C157.469 77.0926 155.199 76.3404 152.779 75.5076C150.358 74.6746 145.326 73.1921 141.592 72.2123C141.152 72.0968 140.69 71.9777 140.213 71.857C141.387 71.7352 142.662 71.6042 144 71.4663ZM124.629 71.7283C125.687 71.826 126.515 71.92 127.012 72.0066C128.776 72.3148 131.006 72.8358 131.964 73.1624C132.921 73.489 134.491 74.1503 135.448 74.631C136.406 75.1117 137.301 75.7094 137.433 75.9627C137.565 76.2159 137.356 76.6788 136.974 76.9907C136.57 77.3173 135.1 77.6734 133.523 77.8275C132.012 77.9743 126.481 78.253 121.236 78.4475C115.991 78.642 105.923 78.8028 98.8622 78.8102C91.8016 78.8175 83.8787 78.6531 81.2562 78.4439C80.1766 78.3563 78.9405 78.2301 77.7398 78.0922L79.096 77.9598C80.1956 77.8511 81.3465 77.7368 82.4864 77.6226C83.3456 77.5365 84.3534 77.4389 85.4617 77.3298C85.8373 77.3507 86.2092 77.3726 86.5749 77.3905C92.3334 77.6767 99.3609 77.6654 112.616 77.3425C122.604 77.1039 131.682 76.7554 132.79 76.5755C133.897 76.3921 134.972 76.2455 135.174 76.2455C135.418 76.2479 135.418 76.1391 135.174 75.9192C134.972 75.7357 133.571 75.1593 132.056 74.6419C130.545 74.1208 127.57 73.4274 125.454 73.1008C125.063 73.0406 124.63 72.9851 124.142 72.933C124.214 72.7024 124.295 72.4743 124.388 72.2504C124.461 72.073 124.543 71.8995 124.629 71.7283ZM168.775 68.9116C170.489 69.202 172.177 69.4651 173.502 69.6396C176.429 70.0249 181.873 70.5351 185.607 70.7773C188.23 70.9475 193.45 71.0881 198.841 71.1517C198.941 71.2189 199.032 71.2827 199.115 71.343C199.45 71.587 199.901 72.0021 200.384 72.4943C196.103 72.4692 192.306 72.3861 189.458 72.245C184.818 72.0175 178.875 71.585 176.253 71.284C173.63 70.9831 169.919 70.4801 168.001 70.1645C167.066 70.0107 165.628 69.7335 164.049 69.4093L167.72 69.0249C168.076 68.9873 168.428 68.9484 168.775 68.9116ZM127.365 67.7077C128.377 67.871 129.312 68.0276 130.038 68.161C131.811 68.4867 134.958 69.1658 137.475 69.7592C137.976 70.2773 138.403 70.8602 138.746 71.4916C135.511 70.6961 131.938 69.8898 129.855 69.5C128.932 69.3272 127.914 69.146 126.91 68.9706C127.131 68.8017 127.361 68.6449 127.598 68.5001L127.365 67.7077ZM133.295 62.0691C134.073 62.1751 134.879 62.288 135.692 62.4063C135.669 62.6818 135.653 62.8548 135.652 62.8596L135.552 63.6927C134.615 63.5639 133.625 63.4314 132.654 63.3047L133.027 62.6792C133.027 62.6792 133.129 62.4381 133.295 62.0691ZM125.441 61.158C126.74 61.2907 128.028 61.427 129.189 61.556C129.413 62.0421 129.63 62.5104 129.832 62.9475C128.417 62.7718 127.007 62.5985 125.823 62.4562L125.441 61.158ZM125.271 54.5937C125.517 54.6086 125.786 54.6228 126.076 54.64C126.234 55.0148 126.431 55.4633 126.651 55.9635C125.724 55.9127 124.782 55.8625 123.872 55.813L123.483 54.4922C124.15 54.5299 124.753 54.5625 125.271 54.5937Z" fill="#C69141"/>
<path d="M154.075 145.727C144.914 147.921 132.317 147.454 127.164 146.946C121.152 148.165 124.301 161.571 138.902 164.008C153.503 166.445 165.527 142.985 154.075 145.727Z" fill="#2B2B2B" stroke="#2B2B2B" stroke-width="1.33835" stroke-linejoin="bevel"/>
<path d="M134.819 154.549C140.937 154.549 146.515 156.858 150.732 160.651C147.387 163.156 143.255 164.74 138.893 164.012C132.372 162.924 128.137 159.646 125.98 156.245C128.713 155.151 131.696 154.549 134.819 154.549Z" fill="#FF5963" stroke="#2B2B2B" stroke-width="1.33835" stroke-linejoin="bevel"/>
<path d="M154.066 145.727C155.374 145.414 156.375 145.443 157.102 145.736C152.792 150.06 146.83 152.736 140.242 152.736C134.714 152.736 129.627 150.851 125.586 147.69C126.009 147.328 126.533 147.072 127.155 146.946C132.308 147.454 144.905 147.921 154.066 145.727Z" fill="#FAFAFF" stroke="#2B2B2B" stroke-width="1.33835" stroke-linejoin="bevel"/>
<ellipse cx="112.45" cy="120.062" rx="12.8637" ry="15.9687" fill="#2B2B2B"/>
<path d="M117.78 120.949C119.005 120.949 119.998 122.14 119.998 123.61C119.998 125.08 119.005 126.271 117.78 126.271C116.556 126.271 115.563 125.08 115.562 123.61C115.562 122.141 116.556 120.949 117.78 120.949ZM108.918 108.533C111.613 108.533 113.798 110.916 113.798 113.855C113.798 116.795 111.613 119.179 108.918 119.179C106.223 119.179 104.039 116.795 104.039 113.855C104.039 110.916 106.223 108.533 108.918 108.533Z" fill="white"/>
<ellipse cx="161.829" cy="114.971" rx="12.8637" ry="15.9687" fill="#2B2B2B"/>
<path d="M167.148 115.854C168.373 115.854 169.366 117.045 169.366 118.515C169.366 119.984 168.373 121.176 167.148 121.176C165.924 121.176 164.931 119.985 164.931 118.515C164.931 117.045 165.924 115.854 167.148 115.854ZM158.282 103.438C160.977 103.438 163.161 105.82 163.161 108.76C163.161 111.699 160.977 114.083 158.282 114.083C155.587 114.083 153.402 111.7 153.402 108.76C153.403 105.82 155.588 103.438 158.282 103.438Z" fill="white"/>
</g>
<path d="M754.174 102.512C755.095 102.398 757.861 102.333 760.319 102.369C764.362 102.427 765.119 102.503 768.252 103.163C770.156 103.563 773.023 104.34 774.621 104.888C776.219 105.435 778.406 106.329 779.481 106.872C780.556 107.415 782.317 108.423 783.392 109.111C784.467 109.799 785.718 110.729 786.999 111.994L785.895 114.117C785.287 115.283 784.371 116.943 783.861 117.804C783.352 118.664 782.107 120.925 781.095 122.832C780.082 124.738 779.066 126.648 778.835 127.077C778.608 127.506 778.398 127.909 778.368 127.971C778.342 128.034 777.888 127.716 777.363 127.267C776.838 126.818 776.055 126.132 775.626 125.741C775.195 125.35 773.988 124.47 772.945 123.786C771.899 123.104 770.241 122.201 769.258 121.781C768.275 121.361 767.016 120.917 766.465 120.794C765.91 120.673 764.654 120.566 763.671 120.557C762.688 120.55 761.434 120.68 760.887 120.849C760.337 121.017 759.571 121.457 759.18 121.826C758.771 122.213 758.364 122.899 758.221 123.446C758.047 124.116 758.04 124.642 758.205 125.234C758.333 125.694 758.76 126.465 759.155 126.943C759.548 127.424 760.275 128.092 760.766 128.427C761.258 128.762 763.772 130.114 766.353 131.43C768.934 132.747 772.587 134.744 774.471 135.868C776.916 137.33 778.444 138.427 779.81 139.703C780.862 140.686 782.156 142.094 782.681 142.831C783.209 143.569 784.04 145.028 784.527 146.072C785.016 147.115 785.651 148.726 785.937 149.647C786.393 151.122 786.456 151.768 786.449 155.01C786.444 158.051 786.353 159.068 785.935 160.82C785.658 161.986 785.137 163.647 784.782 164.507C784.424 165.367 783.638 166.775 783.03 167.636C782.422 168.496 781.238 169.872 780.397 170.695C779.555 171.517 778.011 172.724 776.967 173.379C775.921 174.033 774.212 174.936 773.168 175.387C772.123 175.837 770.464 176.411 769.481 176.663C768.498 176.914 766.737 177.258 765.571 177.43C764.402 177.6 761.939 177.756 760.096 177.776C758.252 177.798 755.687 177.707 754.398 177.575C753.106 177.443 750.894 177.077 749.482 176.762C748.067 176.447 746.156 175.942 745.236 175.64C744.313 175.338 742.402 174.581 740.99 173.957C739.576 173.334 737.765 172.46 736.968 172.018C736.168 171.573 735.227 171.059 734.874 170.876C734.521 170.69 733.303 169.837 732.166 168.976C731.028 168.116 729.784 167.135 729.399 166.798C729.015 166.46 728.698 166.058 728.695 165.904C728.693 165.749 729.011 164.972 729.399 164.172C729.79 163.372 730.688 161.714 731.399 160.485C732.107 159.256 733.048 157.598 733.486 156.798C733.927 155.998 734.914 154.156 735.683 152.706C736.449 151.254 737.33 149.768 738.197 148.744L739.091 149.591C739.582 150.056 740.738 151.061 741.66 151.828C742.581 152.592 744.065 153.723 744.956 154.337C745.848 154.954 747.406 155.872 748.42 156.382C749.435 156.891 750.916 157.499 751.716 157.736C752.514 157.971 754.123 158.221 755.292 158.29C756.567 158.364 757.792 158.315 758.364 158.165C758.887 158.027 759.665 157.613 760.096 157.245C760.634 156.782 760.921 156.315 761.017 155.736C761.093 155.276 761.079 154.346 760.985 153.669C760.845 152.657 760.652 152.268 759.897 151.466C759.392 150.93 758.525 150.159 757.973 149.752C757.419 149.345 756.212 148.59 755.292 148.074C754.368 147.56 751.653 146.08 749.258 144.789C746.86 143.497 743.895 141.763 742.666 140.937C741.437 140.11 739.877 138.932 739.202 138.32C738.525 137.707 737.453 136.51 736.818 135.661C736.181 134.811 735.258 133.312 734.765 132.329C734.273 131.345 733.656 129.786 733.395 128.865C733.118 127.882 732.867 126.172 732.791 124.731C732.695 122.934 732.762 121.672 733.037 120.038C733.265 118.695 733.723 117.091 734.188 116.016C734.615 115.033 735.287 113.679 735.685 113.006C736.083 112.336 737.263 110.921 738.308 109.862C739.352 108.803 740.912 107.473 741.772 106.906C742.632 106.34 744.291 105.46 745.459 104.953C746.626 104.445 748.688 103.735 750.04 103.377C751.392 103.017 753.251 102.629 754.174 102.512Z" fill="#E5B656"/>
<path d="M526.968 75.0516C527.107 74.7143 527.308 74.5736 527.556 74.6451C527.762 74.7054 528.787 74.8215 529.831 74.8998C530.877 74.9802 532.988 75.1835 534.523 75.351C536.061 75.5209 537.871 75.7155 538.546 75.7803C539.223 75.8473 540.78 75.9992 542.009 76.1198C543.238 76.2383 545.048 76.397 546.032 76.4708C547.015 76.5445 549.026 76.7522 550.501 76.931C551.975 77.112 553.334 77.3109 553.518 77.3757C553.795 77.4718 553.824 77.7578 553.688 78.9891C553.596 79.8136 553.321 82.6472 553.075 85.2907C552.829 87.9342 552.423 92.6582 552.173 95.7934C551.922 98.9285 551.522 104.307 551.283 107.749C551.046 111.19 550.798 114.861 550.733 115.905C550.671 116.948 550.494 119.514 550.342 121.603C550.193 123.692 550.068 129.223 550.065 133.893C550.063 141.891 550.092 142.521 550.57 144.731C550.847 146.023 551.236 147.58 551.431 148.195C551.625 148.809 551.989 149.665 552.24 150.094C552.49 150.523 552.955 151.162 553.274 151.511C553.591 151.86 554.23 152.338 554.691 152.573C555.151 152.807 555.956 153.062 556.478 153.136C557.066 153.221 557.982 153.131 558.881 152.903C559.681 152.7 560.836 152.287 561.451 151.983C562.065 151.679 562.693 151.431 562.847 151.433C563.001 151.433 563.223 151.761 563.339 152.161C563.455 152.561 564.215 155.149 565.03 157.916C565.844 160.68 567.106 164.879 567.835 167.245C568.563 169.611 569.16 171.696 569.16 171.882C569.16 172.067 568.883 172.405 568.545 172.637C568.208 172.867 566.624 173.614 565.026 174.295C563.428 174.977 561.267 175.79 560.221 176.105C559.178 176.418 557.518 176.834 556.534 177.026C555.551 177.218 553.491 177.437 551.953 177.511C550.199 177.596 548.329 177.54 546.926 177.363C545.696 177.207 543.786 176.834 542.68 176.534C541.574 176.235 539.916 175.665 538.993 175.267C538.072 174.87 536.524 173.996 535.552 173.325C534.579 172.655 533.29 171.602 532.682 170.988C532.077 170.373 531.154 169.267 530.631 168.53C530.108 167.792 529.417 166.735 529.096 166.184C528.776 165.632 528.148 164.273 527.704 163.167C527.259 162.061 526.597 160.15 526.233 158.921C525.871 157.692 525.333 155.531 525.038 154.117C524.743 152.702 524.334 150.392 524.128 148.977C523.923 147.563 523.625 144.899 523.469 143.055C523.312 141.212 523.161 137.592 523.132 135.011C523.112 133.269 523.088 131.146 523.069 129.458L523.047 127.413C523.029 125.815 523.078 122.095 523.156 119.145C523.234 116.195 523.366 112.727 523.449 111.436C523.532 110.144 523.795 106.676 524.039 103.726C524.28 100.777 524.68 96.1509 524.926 93.447C525.172 90.7431 525.574 86.6203 525.822 84.2851C526.07 81.95 526.314 79.6863 526.363 79.2572C526.412 78.8282 526.521 77.8226 526.606 77.0226C526.689 76.2227 526.852 75.3377 526.968 75.0516Z" fill="#E5B656"/>
<path d="M662.403 83.0566C663.529 83.0566 665.76 83.1507 667.357 83.2646C668.955 83.3786 672.274 83.5308 674.732 83.6045C677.19 83.676 680.206 83.7964 681.436 83.8701C682.663 83.946 683.768 84.0863 683.894 84.1846C684.016 84.2852 684.104 84.6988 684.089 85.1074C684.073 85.5163 683.988 87.1062 683.898 88.6436C683.809 90.1784 683.706 91.6866 683.668 91.9951C683.632 92.3015 683.539 93.5105 683.465 94.6768C683.389 95.8432 683.28 97.452 683.222 98.252C683.164 99.0519 683.018 101.666 682.899 104.062C682.781 106.457 682.619 109.778 682.538 111.437C682.458 113.094 682.455 114.778 682.528 115.179C682.611 115.614 682.799 115.905 683 115.905C683.186 115.905 684.342 115.402 685.57 114.788C686.799 114.174 688.384 113.479 689.09 113.244C689.796 113.009 691.381 112.614 692.609 112.363C693.838 112.115 695.397 111.842 696.072 111.76C696.749 111.675 698.307 111.605 699.536 111.605C700.765 111.605 702.325 111.679 703 111.767C703.677 111.856 704.832 112.067 705.569 112.236C706.307 112.404 707.514 112.752 708.251 113.007C708.988 113.264 710.597 113.968 711.826 114.571C713.055 115.175 714.821 116.249 715.751 116.96C716.68 117.671 717.873 118.654 718.405 119.146C718.937 119.637 720.019 120.895 720.81 121.938C721.627 123.018 722.917 125.19 723.795 126.967C724.932 129.271 725.553 130.889 726.152 133.112C726.599 134.77 727.091 137.183 727.243 138.475C727.395 139.766 727.492 142.281 727.458 144.062C727.422 145.842 727.279 148.055 727.141 148.978C727.002 149.898 726.681 151.61 726.426 152.776C726.169 153.943 725.661 155.755 725.299 156.799C724.935 157.842 724.28 159.35 723.847 160.15C723.411 160.95 722.742 162.106 722.36 162.721C721.978 163.335 721.593 163.938 721.503 164.062C721.413 164.185 721.049 164.638 720.693 165.066C720.338 165.495 719.934 166.074 719.793 166.352C719.652 166.628 719.387 166.854 719.201 166.854C719.018 166.855 718.645 167.181 718.372 167.581C718.102 167.981 717.574 168.584 717.198 168.922C716.825 169.259 715.815 170.01 714.955 170.591C714.095 171.172 712.888 171.889 712.273 172.187C711.659 172.481 710.403 173 709.48 173.335C708.56 173.67 707.201 174.072 706.464 174.227C705.727 174.378 704.873 174.539 704.564 174.582C704.258 174.624 702.548 174.664 700.766 174.671C698.985 174.678 696.721 174.582 695.737 174.459C694.754 174.334 693.648 174.173 693.279 174.102C692.911 174.03 691.755 173.708 690.71 173.387C689.666 173.065 687.679 172.217 686.296 171.502C684.621 170.638 683.661 170.263 683.416 170.374C683.101 170.519 683.063 170.886 683.224 175.458L681.436 175.603C680.452 175.683 677.185 175.86 674.174 175.994C671.164 176.13 667.175 176.267 665.312 176.296C663.448 176.327 661.879 176.303 661.818 176.24C661.762 176.178 661.594 173.764 661.449 170.877C661.302 167.991 661.148 165.274 661.11 164.844C661.07 164.415 660.969 162.653 660.887 160.933C660.802 159.212 660.699 157.402 660.656 156.91C660.612 156.418 660.514 154.961 660.436 153.67C660.36 152.379 660.256 150.971 660.207 150.542C660.16 150.113 660.053 148.101 659.973 146.072C659.89 144.044 659.794 142.337 659.758 142.273C659.722 142.202 659.632 139.542 659.557 136.352C659.481 133.156 659.346 128.531 659.255 126.073C659.163 123.615 659.09 117.631 659.09 112.777C659.09 107.924 659.168 102.342 659.262 100.375C659.356 98.4088 659.481 96.1967 659.537 95.459C659.593 94.7216 659.695 92.7595 659.765 91.1016C659.834 89.4435 659.941 87.3289 659.999 86.4082C660.059 85.4854 660.162 84.3548 660.229 83.8945L660.353 83.0566H662.403ZM695.959 130.057C693.923 129.992 693.271 130.06 692.16 130.438C691.423 130.69 690.424 131.116 689.939 131.387C689.457 131.657 688.73 132.229 688.328 132.66C687.926 133.089 687.302 133.995 686.944 134.672C686.587 135.349 686.08 136.528 685.818 137.297C685.559 138.066 685.24 139.423 685.112 140.314C684.985 141.206 684.9 142.739 684.922 143.722C684.946 144.705 685.155 146.263 685.383 147.186C685.613 148.106 686.109 149.513 686.484 150.313C686.86 151.111 687.638 152.31 688.212 152.974C688.786 153.639 689.658 154.452 690.149 154.785C690.641 155.116 691.671 155.604 692.439 155.867C693.208 156.131 694.415 156.379 695.121 156.417C695.827 156.455 697.01 156.401 697.747 156.296C698.507 156.186 699.668 155.798 700.428 155.394C701.165 155.003 702.321 154.124 702.998 153.44C703.675 152.757 704.493 151.648 704.817 150.978C705.141 150.305 705.562 149.302 705.747 148.75C705.935 148.198 706.165 147.141 706.261 146.403C706.355 145.666 706.415 143.905 706.395 142.493C706.37 140.813 706.229 139.536 705.99 138.806C705.789 138.191 705.329 137.034 704.965 136.236C704.601 135.436 703.885 134.245 703.371 133.586C702.859 132.925 701.986 132.066 701.434 131.673C700.882 131.282 699.975 130.775 699.423 130.549C698.717 130.258 697.686 130.113 695.959 130.057Z" fill="#E5B656"/>
<path d="M618.261 104.283C618.849 104.283 621.743 104.48 624.691 104.719C627.641 104.96 632.014 105.271 634.412 105.414C636.805 105.555 638.814 105.72 638.881 105.778C638.941 105.837 638.962 106.554 638.924 107.374C638.886 108.195 638.611 112.485 638.31 116.909C638.01 121.333 637.712 125.455 637.647 126.07C637.583 126.685 637.333 130.055 637.092 133.557C636.851 137.058 636.6 140.629 636.537 141.489C636.475 142.35 636.323 144.712 636.202 146.741C636.079 148.77 635.972 151.433 635.959 152.662C635.941 154.751 635.972 154.924 636.461 155.297C636.747 155.518 637.058 155.695 637.149 155.688C637.241 155.684 637.594 155.436 637.932 155.139C638.417 154.712 638.568 154.345 638.77 152.216L640.445 152.218C641.366 152.22 644.826 152.47 654.142 153.333L654.001 156.238C653.925 157.836 653.714 159.998 653.533 161.042C653.352 162.085 652.939 163.696 652.61 164.617C652.284 165.54 651.679 166.946 651.266 167.746C650.855 168.546 649.976 169.802 649.319 170.539C648.66 171.276 647.625 172.246 647.02 172.693C646.414 173.14 645.366 173.806 644.691 174.173C644.014 174.539 642.204 175.158 640.669 175.547C638.857 176.005 637.051 176.298 635.529 176.381C634.238 176.452 632.077 176.401 630.725 176.267C629.373 176.13 627.261 175.768 626.032 175.462C624.604 175.104 622.828 174.423 621.116 173.578C618.933 172.501 618.144 171.97 616.87 170.723C616.01 169.88 615.013 168.689 614.653 168.077C614.296 167.465 613.767 166.586 612.96 165.288L611.878 166.573C611.284 167.279 610.302 168.226 609.699 168.678C609.096 169.127 607.999 169.793 607.262 170.157C606.524 170.521 605.015 171.078 603.909 171.393C602.803 171.708 601.043 172.059 599.999 172.171C598.953 172.285 597.244 172.336 596.2 172.289C595.154 172.24 593.445 172.047 592.401 171.864C591.356 171.679 589.747 171.315 588.826 171.054C587.903 170.79 586.245 170.162 585.139 169.654C584.033 169.147 582.327 168.184 581.349 167.514C580.37 166.843 578.712 165.429 577.662 164.374C576.612 163.319 575.184 161.61 574.486 160.575C573.791 159.541 572.797 157.791 572.281 156.685C571.763 155.578 570.898 153.214 570.357 151.434C569.819 149.653 569.204 147.338 568.991 146.294C568.696 144.83 568.608 143.215 568.606 139.255C568.603 135.995 568.713 133.42 568.907 132.216C569.073 131.172 569.541 129.11 569.95 127.635C570.357 126.16 570.889 124.45 571.128 123.836C571.369 123.221 572.028 121.762 572.594 120.596C573.159 119.429 574.295 117.568 575.119 116.462C575.944 115.356 577.43 113.641 578.42 112.651C579.412 111.662 580.976 110.344 581.898 109.723C582.819 109.101 584.227 108.263 585.027 107.86C585.825 107.46 587.333 106.853 588.379 106.511C589.422 106.171 591.132 105.729 592.178 105.532C593.284 105.322 595.219 105.173 596.814 105.175C598.32 105.175 600.28 105.286 601.172 105.418C602.063 105.55 603.597 105.856 604.58 106.098C605.563 106.339 607.222 106.842 608.268 107.215C609.311 107.588 610.819 108.205 611.619 108.585C612.417 108.965 613.751 109.711 614.58 110.243C615.408 110.775 616.188 111.21 616.312 111.211C616.434 111.211 616.535 111.085 616.533 110.931C616.533 110.774 616.642 109.343 616.776 107.747C616.91 106.149 617.061 104.717 617.107 104.562C617.161 104.39 617.604 104.283 618.261 104.283ZM603.465 123.882C602.605 123.815 601.45 123.84 600.896 123.938C600.341 124.035 599.311 124.277 598.605 124.479C597.807 124.704 596.792 125.245 595.93 125.904C595.166 126.487 594.163 127.468 593.7 128.083C593.235 128.698 592.509 130.005 592.084 130.988C591.659 131.971 591.13 133.429 590.909 134.229C590.596 135.348 590.506 136.474 590.511 139.145C590.515 141.745 590.616 142.97 590.911 144.061C591.13 144.858 591.656 146.242 592.08 147.134C592.59 148.204 593.289 149.189 594.143 150.038C594.851 150.744 595.932 151.591 596.544 151.92C597.154 152.248 598.511 152.69 599.555 152.9C600.902 153.171 602.006 153.248 603.354 153.158C604.759 153.064 605.689 152.851 606.929 152.34C607.852 151.958 609.132 151.247 609.777 150.76C610.423 150.27 611.195 149.545 611.494 149.145C611.791 148.744 612.443 147.562 612.939 146.519C613.438 145.473 614.008 144.016 614.209 143.278C614.43 142.474 614.623 140.639 614.694 138.697C614.786 136.13 614.73 135.087 614.426 133.67C614.214 132.687 613.682 131.127 613.244 130.206C612.683 129.024 612.046 128.135 611.078 127.189C610.325 126.452 609.21 125.578 608.598 125.247C607.988 124.916 606.933 124.504 606.258 124.327C605.583 124.148 604.325 123.949 603.465 123.882Z" fill="#E5B656"/>
<path d="M436.417 91.538C436.549 91.2052 436.746 91.156 437.517 91.2588C438.036 91.3258 440.368 91.5335 442.703 91.7167C445.038 91.8999 451.072 92.3066 456.111 92.6172C461.148 92.9299 465.29 93.2071 465.317 93.2341C465.342 93.2611 465.411 93.6365 465.469 94.0653C465.53 94.4943 465.644 95.7033 465.722 96.7468C465.8 97.7903 466.01 99.7034 466.189 100.993C466.365 102.282 466.658 104.195 466.839 105.238C467.018 106.282 467.624 108.796 468.182 110.825C468.741 112.854 469.458 115.267 469.773 116.188C470.088 117.111 470.77 118.72 471.288 119.764C471.804 120.807 472.792 122.518 473.483 123.562C474.173 124.606 475.172 125.985 475.704 126.622C476.233 127.26 476.794 127.787 476.948 127.794C477.102 127.801 477.492 127.229 477.816 126.523C478.137 125.817 478.895 123.781 479.498 121.998C480.101 120.215 480.886 117.603 481.246 116.188C481.603 114.774 482.099 112.713 482.345 111.607C482.591 110.501 482.96 108.34 483.163 106.803C483.366 105.267 483.648 101.897 484.043 94.6238L485.496 94.6822C486.296 94.7135 490.568 94.9882 494.993 95.2921C499.417 95.5982 503.438 95.8952 503.931 95.9578C504.423 96.0181 505.981 96.1302 507.395 96.2061C509.397 96.3156 510.029 96.4274 510.257 96.7132C510.472 96.9814 510.519 97.596 510.432 98.9813C510.365 100.025 510.251 101.938 510.175 103.227C510.101 104.517 509.797 107.786 509.498 110.49C509.198 113.193 508.747 116.561 508.492 117.976C508.237 119.39 507.686 122.155 507.266 124.121C506.843 126.087 506.032 129.406 505.462 131.495C504.89 133.584 503.802 137.055 503.04 139.204C502.278 141.356 500.975 144.724 500.144 146.69C499.313 148.657 497.956 151.625 497.129 153.283C496.303 154.941 495.17 157.103 494.613 158.087C494.057 159.07 493.319 160.377 492.975 160.992C492.631 161.606 491.324 163.669 490.07 165.573C488.817 167.477 487.004 170.094 486.046 171.383C485.087 172.672 483.29 174.987 482.052 176.523C480.814 178.06 479.105 180.071 478.253 180.992C477.402 181.914 475.114 184.252 473.168 186.187C470.967 188.379 469.462 189.706 469.183 189.706C468.937 189.706 467.504 189.092 465.999 188.341C464.493 187.59 463.161 186.9 463.038 186.808C462.915 186.714 461.759 186.102 460.468 185.445C459.176 184.788 456.991 183.62 455.608 182.844C454.225 182.071 453.069 181.441 453.038 181.443C453 181.441 451.767 180.764 450.292 179.935C448.812 179.103 447.404 178.297 447.163 178.145C446.736 177.877 446.739 177.856 447.284 177.407C447.59 177.155 448.345 176.565 448.96 176.098C449.574 175.631 451.199 174.1 452.569 172.701C453.938 171.3 455.749 169.298 456.591 168.255C457.434 167.211 458.671 165.55 459.346 164.567C460.019 163.584 461.179 161.674 461.923 160.322C462.667 158.97 463.44 157.51 463.644 157.081C463.847 156.652 464.321 155.62 464.698 154.791C465.076 153.962 465.384 153.183 465.384 153.059C465.384 152.936 464.555 152.156 463.541 151.329C462.526 150.5 460.792 148.916 459.686 147.808C458.58 146.702 457.036 145.093 456.254 144.232C455.472 143.372 453.847 141.361 452.645 139.763C451.443 138.165 449.764 135.752 448.915 134.4C448.068 133.048 446.813 130.885 446.127 129.595C445.441 128.306 444.352 126.094 443.707 124.68C443.061 123.265 442.155 121.156 441.695 119.987C441.233 118.818 440.551 116.959 440.176 115.853C439.803 114.746 439.295 113.088 439.047 112.166C438.801 111.245 438.388 109.484 438.134 108.255C437.879 107.026 437.512 105.115 437.32 104.009C437.128 102.903 436.877 101.194 436.763 100.211C436.649 99.2275 436.488 96.966 436.408 95.1828C436.325 93.3998 436.33 91.7597 436.417 91.538ZM311.862 75.1272C311.86 75.8961 311.708 79.1385 311.525 82.3339C311.339 85.5293 311.116 89.6344 310.861 94.765L318.385 94.6957C322.522 94.6555 325.989 94.7067 326.095 94.8094C326.197 94.9134 326.258 98.082 326.229 101.849C326.202 105.618 326.07 110.36 325.936 112.389C325.802 114.418 325.648 116.327 325.592 116.635C325.536 116.941 325.467 117.215 325.44 117.245C325.41 117.272 325.133 117.355 324.827 117.428C324.519 117.5 321 117.616 317.006 117.683C313.013 117.753 309.692 117.855 309.632 117.913C309.571 117.974 309.429 119.795 309.315 121.962C309.203 124.132 309.102 129.529 309.091 133.953C309.078 140.411 309.147 142.483 309.447 144.456C309.652 145.808 310.023 147.517 310.271 148.255C310.517 148.992 310.919 150.047 311.161 150.601C311.402 151.155 311.887 151.946 312.235 152.364C312.586 152.78 313.275 153.323 313.766 153.569C314.372 153.872 315.272 154.051 316.559 154.12C318.275 154.212 318.642 154.156 320.358 153.524C321.402 153.14 322.785 152.476 323.431 152.049C324.076 151.621 324.704 151.272 324.827 151.271C324.95 151.271 325.303 151.899 325.614 152.668C325.925 153.437 326.369 154.717 326.604 155.517C326.839 156.317 327.25 157.573 327.516 158.311C327.782 159.048 328.504 161.059 329.118 162.78C329.733 164.5 330.631 167.014 331.118 168.366C331.605 169.718 331.947 170.949 331.878 171.104C331.81 171.258 330.724 171.955 329.464 172.656C328.204 173.356 326.421 174.248 325.498 174.639C324.577 175.03 322.667 175.716 321.252 176.163C319.838 176.612 317.878 177.128 316.894 177.314C315.911 177.497 314.001 177.709 312.649 177.785C311.176 177.87 309.25 177.814 307.844 177.649C306.555 177.497 304.745 177.173 303.822 176.927C302.901 176.683 301.695 176.335 301.14 176.156C300.586 175.975 299.029 175.282 297.677 174.619C296.18 173.884 294.482 172.82 293.335 171.895C292.298 171.061 290.705 169.472 289.795 168.366C288.841 167.204 287.69 165.459 287.069 164.232C286.479 163.063 285.639 160.954 285.201 159.54C284.763 158.125 284.207 156.165 283.961 155.182C283.717 154.199 283.362 152.288 283.172 150.936C282.982 149.584 282.725 147.272 282.6 145.797C282.477 144.322 282.372 140.351 282.372 136.97C282.37 133.591 282.479 128.512 282.616 125.685C282.752 122.858 282.877 119.893 282.929 117.641L277.119 117.482C273.923 117.393 271.284 117.292 271.252 117.258C271.221 117.215 271.199 113.017 271.204 107.92C271.208 102.819 271.257 98.4209 271.315 98.1435C271.373 97.8665 271.597 97.5986 271.811 97.5471C272.026 97.4957 273.007 97.3862 273.99 97.3057C274.973 97.2253 277.738 96.9168 280.135 96.6196C282.53 96.3249 284.54 96.0816 284.605 96.0789C284.665 96.0723 284.716 91.6391 284.716 86.2221C284.716 79.8917 284.797 76.3274 284.94 76.242C285.063 76.1705 286.522 75.9829 288.18 75.8221C289.838 75.6634 292.254 75.4287 293.543 75.3058C294.832 75.1807 298.001 74.8747 300.582 74.6244C303.163 74.3742 306.331 74.0838 307.621 73.981C308.91 73.8782 310.394 73.7796 311.867 73.7305L311.862 75.1272ZM394.101 106.244C394.101 108.551 394.183 109.93 394.324 109.932C394.448 109.931 395.429 109.345 396.503 108.631C397.578 107.916 399.061 106.973 399.799 106.535C400.536 106.097 402.096 105.382 403.263 104.948C404.429 104.515 406.138 104.005 407.061 103.818C407.982 103.63 409.743 103.406 410.972 103.323C412.342 103.23 414.158 103.279 415.664 103.451C417.016 103.605 418.851 103.97 419.743 104.26C420.634 104.553 422.445 105.317 423.765 105.958C425.89 106.991 426.4 107.357 428.178 109.153C429.284 110.268 430.29 111.328 430.413 111.507C430.536 111.688 431.05 112.437 431.557 113.174C432.064 113.909 432.732 115.015 433.043 115.63C433.354 116.244 433.908 117.502 434.275 118.423C434.641 119.346 435.251 121.205 435.629 122.557C436.008 123.909 436.529 126.222 436.784 127.696C437.041 129.171 437.4 132.088 437.586 134.177C437.798 136.584 437.901 139.982 437.867 143.45C437.838 146.463 437.734 150.485 437.635 152.389C437.539 154.293 437.304 157.261 437.115 158.981C436.927 160.702 436.617 163.216 436.429 164.568C436.239 165.92 436.051 167.227 436.013 167.473C435.973 167.718 435.872 168.371 435.787 168.925C435.702 169.479 435.588 170.107 435.537 170.322C435.454 170.657 435.244 170.697 434.044 170.603C433.275 170.543 431.34 170.395 429.742 170.275C428.145 170.156 425.579 169.993 424.044 169.913C422.507 169.832 421.05 169.725 420.804 169.678C420.557 169.629 418.495 169.477 416.223 169.339C413.952 169.2 412.025 169.026 411.94 168.95C411.859 168.874 411.937 168.009 412.114 167.026C412.29 166.042 412.728 163.227 413.086 160.769C413.441 158.311 413.888 154.74 414.078 152.836C414.268 150.932 414.467 147.763 414.523 145.797C414.576 143.83 414.54 140.914 414.44 139.316C414.315 137.285 414.044 135.538 413.539 133.506C413.142 131.909 412.579 130.074 412.286 129.428C411.993 128.782 411.275 127.746 410.692 127.122C410.082 126.472 409.108 125.743 408.402 125.415C407.622 125.051 406.681 124.816 405.832 124.771C405.095 124.733 403.94 124.85 403.263 125.028C402.585 125.207 401.631 125.596 401.14 125.893C400.648 126.188 399.812 126.865 399.281 127.399C398.749 127.931 398.027 128.818 397.678 129.372C397.327 129.927 396.885 130.881 396.691 131.495C396.498 132.11 396.241 133.216 396.123 133.953C396.002 134.691 395.939 137.708 395.98 140.657C396.022 143.607 396.219 148.232 396.418 150.936C396.617 153.64 396.938 157.964 397.131 160.545C397.323 163.126 397.519 165.387 397.566 165.573C397.613 165.759 397.707 166.939 397.899 170.49L397.173 170.505C396.773 170.514 396.094 170.556 395.665 170.599C395.235 170.641 393.624 170.735 392.089 170.804C390.554 170.876 386.782 171.034 383.71 171.162C380.637 171.287 377.017 171.415 373.209 171.495L373.057 169.931C372.972 169.07 372.74 165.904 372.539 162.892C372.338 159.879 372.139 156.965 372.096 156.411C372.052 155.857 371.951 153.495 371.871 151.16C371.79 148.825 371.681 146.512 371.625 146.02C371.571 145.528 371.488 140.3 371.444 134.4C371.399 128.501 371.442 121.764 371.538 119.429C371.634 117.093 371.777 113.473 371.853 111.384C371.931 109.295 372.101 106.68 372.231 105.574C372.362 104.469 372.483 103.551 372.503 103.534C372.521 103.516 374.398 103.431 376.67 103.344C378.943 103.256 382.715 103.058 385.05 102.904C387.385 102.747 390.378 102.606 394.101 102.557V106.244ZM350.367 110.313C360.355 110.351 362.956 110.42 363.069 110.648C363.147 110.807 363.172 111.54 363.125 112.277C363.076 113.015 362.89 115.931 362.711 118.758C362.534 121.584 362.336 124.753 362.271 125.797C362.206 126.84 362.076 129.96 361.982 132.724C361.886 135.491 361.81 142.981 361.81 149.372C361.81 157.421 361.895 161.575 362.087 162.891C362.237 163.935 362.414 165.269 362.479 165.852C362.557 166.587 362.507 166.942 362.313 167.009C362.158 167.063 361.028 167.164 359.799 167.235C358.57 167.304 354.749 167.512 351.308 167.693C347.867 167.877 344.498 168.077 343.822 168.138C343.147 168.198 341.663 168.301 340.526 168.364C339.255 168.433 338.417 168.393 338.347 168.254C338.287 168.13 338.041 166.195 337.806 163.952C337.57 161.709 337.308 158.516 337.227 156.858C337.145 155.2 337.027 153.591 336.962 153.282C336.899 152.976 336.823 146.992 336.792 139.986C336.763 132.981 336.814 125.54 336.908 123.45C337 121.361 337.138 118.697 337.214 117.529C337.29 116.36 337.404 114.753 337.467 113.953C337.527 113.153 337.63 111.998 337.692 111.383L337.806 110.266L350.367 110.313ZM349.967 74.2197C350.459 74.2063 351.616 74.3246 352.537 74.4876C353.46 74.6486 354.865 75.0666 355.665 75.4152C356.465 75.7637 357.62 76.3737 358.235 76.7692C358.849 77.1669 359.83 77.9535 360.414 78.5166C360.997 79.0797 361.853 80.1187 362.316 80.8247C362.778 81.5309 363.406 82.8653 363.71 83.7859C364.186 85.2338 364.26 85.8575 364.248 88.3669C364.237 90.8649 364.161 91.4594 363.71 92.6124C363.422 93.3498 362.863 94.5075 362.467 95.1823C362.072 95.8572 361.259 96.8852 360.662 97.4617C360.065 98.0404 359.125 98.8379 358.57 99.2357C358.016 99.6334 356.812 100.286 355.889 100.686C354.968 101.086 353.46 101.533 352.537 101.676C351.509 101.839 350.083 101.882 348.85 101.786C347.676 101.696 346.047 101.381 344.939 101.026C343.717 100.637 342.483 100.034 341.476 99.3342C340.615 98.7375 339.321 97.6335 338.602 96.8827C337.815 96.0626 336.991 94.894 336.537 93.9533C336.119 93.0908 335.668 91.6874 335.529 90.8249C335.391 89.9646 335.33 88.3555 335.393 87.2494C335.458 86.1434 335.697 84.6843 335.925 84.0094C336.153 83.3346 336.691 82.1769 337.12 81.4395C337.549 80.7021 338.655 79.339 339.576 78.4116C340.863 77.1156 341.692 76.5076 343.152 75.7881C344.195 75.272 345.605 74.7534 346.28 74.6349C346.955 74.5143 347.862 74.3804 348.291 74.3334C348.72 74.2865 349.475 74.2354 349.967 74.2197Z" fill="#E5B656"/>
<defs>
<clipPath id="clip0_1930_4287">
<rect width="224.532" height="244.549" fill="white" transform="translate(29.2617 9.44531)"/>
</clipPath>
</defs>
</svg>
