<svg width="285" height="84" viewBox="0 0 285 84" fill="none" xmlns="http://www.w3.org/2000/svg">
<path d="M257.347 27.9606C257.815 27.9027 259.222 27.8696 260.473 27.8878C262.529 27.9174 262.914 27.9561 264.508 28.2914C265.476 28.4949 266.935 28.8904 267.747 29.1689C268.56 29.4474 269.673 29.902 270.22 30.1782C270.766 30.4544 271.662 30.967 272.209 31.3171C272.756 31.6672 273.392 32.1401 274.043 32.7835L273.482 33.8633C273.173 34.4566 272.707 35.3012 272.448 35.7388C272.188 36.1764 271.555 37.3267 271.04 38.2963C270.525 39.2658 270.008 40.2377 269.891 40.4559C269.775 40.6741 269.668 40.8787 269.654 40.9106C269.64 40.9424 269.409 40.781 269.142 40.5525C268.875 40.324 268.477 39.9752 268.259 39.7763C268.039 39.5773 267.426 39.1295 266.895 38.7817C266.363 38.435 265.519 37.9757 265.019 37.762C264.519 37.5483 263.879 37.3221 263.599 37.2596C263.317 37.1983 262.678 37.1437 262.178 37.1392C261.678 37.1358 261.04 37.2017 260.761 37.288C260.482 37.3733 260.092 37.5972 259.893 37.7848C259.685 37.9814 259.478 38.3304 259.405 38.6089C259.317 38.9498 259.313 39.217 259.397 39.5182C259.462 39.7523 259.679 40.1445 259.881 40.3878C260.081 40.6321 260.45 40.972 260.7 41.1425C260.95 41.313 262.229 42.0007 263.542 42.6702C264.855 43.3397 266.713 44.3558 267.671 44.9276C268.915 45.6709 269.692 46.2291 270.387 46.8781C270.922 47.3782 271.58 48.0943 271.847 48.4694C272.116 48.8445 272.538 49.5868 272.786 50.1176C273.035 50.6484 273.358 51.4679 273.504 51.9362C273.735 52.6864 273.767 53.015 273.764 54.6642C273.762 56.2112 273.715 56.7284 273.502 57.6196C273.361 58.2129 273.097 59.0574 272.916 59.4951C272.734 59.9327 272.334 60.6488 272.025 61.0864C271.716 61.524 271.113 62.2242 270.686 62.6425C270.257 63.0608 269.472 63.6746 268.941 64.0076C268.409 64.3407 267.539 64.7999 267.009 65.0295C266.477 65.258 265.633 65.5501 265.133 65.6786C264.633 65.8059 263.737 65.9809 263.144 66.0684C262.549 66.1548 261.297 66.2343 260.359 66.2446C259.421 66.2559 258.116 66.2094 257.461 66.1423C256.804 66.0752 255.678 65.8888 254.96 65.7285C254.24 65.5682 253.269 65.3114 252.8 65.158C252.331 65.0045 251.359 64.6191 250.641 64.302C249.921 63.9849 249 63.5405 248.595 63.3154C248.188 63.0893 247.709 62.8278 247.53 62.7345C247.35 62.6402 246.73 62.206 246.152 61.7684C245.573 61.3308 244.94 60.8318 244.745 60.6601C244.549 60.4885 244.388 60.2839 244.387 60.2055C244.386 60.127 244.547 59.7314 244.745 59.3246C244.944 58.9176 245.401 58.0742 245.762 57.4491C246.122 56.8239 246.601 55.9805 246.824 55.5736C247.048 55.1666 247.55 54.23 247.941 53.4924C248.331 52.7536 248.779 51.9976 249.22 51.477L249.674 51.9078C249.924 52.1442 250.512 52.6557 250.982 53.0456C251.45 53.4343 252.205 54.0095 252.658 54.3221C253.112 54.6358 253.904 55.1029 254.42 55.3621C254.936 55.6213 255.69 55.9305 256.097 56.051C256.502 56.1703 257.321 56.2976 257.915 56.3328C258.564 56.3703 259.187 56.3454 259.478 56.2692C259.744 56.1987 260.14 55.9884 260.359 55.8009C260.633 55.5656 260.778 55.328 260.827 55.0337C260.866 54.7995 260.859 54.3266 260.811 53.9822C260.74 53.4674 260.642 53.2695 260.258 52.8614C260.001 52.5886 259.56 52.1965 259.279 51.9896C258.997 51.7827 258.383 51.3986 257.915 51.136C257.446 50.8746 256.065 50.1221 254.846 49.4651C253.627 48.8081 252.118 47.9261 251.493 47.5056C250.868 47.085 250.075 46.4859 249.731 46.1744C249.387 45.863 248.841 45.2538 248.518 44.8219C248.194 44.3899 247.725 43.6272 247.474 43.1271C247.224 42.627 246.91 41.8336 246.777 41.3653C246.636 40.8651 246.509 39.9956 246.47 39.2624C246.421 38.3486 246.455 37.7063 246.595 36.8754C246.711 36.1923 246.944 35.3762 247.181 34.8295C247.398 34.3293 247.74 33.6405 247.942 33.2984C248.145 32.9574 248.745 32.2378 249.277 31.6991C249.807 31.1603 250.601 30.4841 251.038 30.1953C251.476 29.9078 252.319 29.4599 252.914 29.2019C253.507 28.9438 254.556 28.5824 255.244 28.4005C255.932 28.2175 256.877 28.0198 257.347 27.9606Z" fill="white"/>
<path d="M141.77 13.9895C141.841 13.8179 141.943 13.7463 142.069 13.7827C142.174 13.8134 142.695 13.8724 143.226 13.9122C143.758 13.9531 144.832 14.0565 145.613 14.1418C146.395 14.2281 147.316 14.3271 147.659 14.3601C148.004 14.3942 148.796 14.4714 149.421 14.5328C150.046 14.5931 150.967 14.6738 151.467 14.7113C151.967 14.7488 152.99 14.8545 153.74 14.9454C154.49 15.0375 155.181 15.1387 155.275 15.1716C155.416 15.2205 155.431 15.366 155.361 15.9923C155.315 16.4117 155.175 17.853 155.05 19.1977C154.925 20.5424 154.718 22.9453 154.591 24.54C154.463 26.1347 154.26 28.8707 154.138 30.6212C154.018 32.3716 153.891 34.2391 153.858 34.77C153.827 35.3008 153.737 36.6057 153.66 37.6685C153.583 38.7313 153.52 41.5445 153.519 43.9201C153.518 47.9882 153.532 48.3088 153.776 49.4329C153.917 50.0899 154.114 50.8822 154.213 51.1948C154.312 51.5073 154.497 51.9427 154.625 52.1609C154.752 52.3792 154.988 52.7042 155.151 52.8816C155.312 53.0589 155.637 53.3021 155.872 53.4215C156.106 53.5408 156.515 53.6705 156.781 53.708C157.08 53.7512 157.546 53.7057 158.003 53.5898C158.41 53.4863 158.997 53.276 159.31 53.1214C159.622 52.9669 159.942 52.8407 160.02 52.8418C160.099 52.8418 160.211 53.0089 160.27 53.2123C160.33 53.4158 160.716 54.7321 161.131 56.1393C161.545 57.5453 162.187 59.6811 162.557 60.8848C162.928 62.0885 163.231 63.1489 163.231 63.2434C163.231 63.3377 163.09 63.5094 162.919 63.6276C162.747 63.7447 161.941 64.1243 161.129 64.471C160.316 64.8177 159.217 65.2315 158.685 65.3917C158.154 65.5509 157.309 65.7623 156.809 65.8601C156.309 65.9578 155.261 66.0692 154.479 66.1067C153.587 66.1499 152.635 66.1215 151.922 66.0317C151.296 65.9521 150.325 65.7623 149.762 65.61C149.199 65.4577 148.356 65.1678 147.886 64.9655C147.418 64.7632 146.631 64.3187 146.136 63.9777C145.642 63.6367 144.986 63.1013 144.677 62.7887C144.369 62.4762 143.899 61.9135 143.633 61.5384C143.367 61.1633 143.016 60.6257 142.852 60.3449C142.69 60.0641 142.37 59.373 142.144 58.8104C141.918 58.2478 141.581 57.2759 141.396 56.6508C141.212 56.0256 140.938 54.9264 140.788 54.2069C140.638 53.4874 140.43 52.3121 140.325 51.5926C140.221 50.8731 140.07 49.5182 139.99 48.5804C139.911 47.6427 139.833 45.8013 139.818 44.4885C139.809 43.6026 139.796 42.5226 139.787 41.6641L139.775 40.6238C139.766 39.8111 139.791 37.9185 139.831 36.4181C139.871 34.9177 139.938 33.1536 139.98 32.4967C140.022 31.8396 140.156 30.0755 140.28 28.5752C140.403 27.0748 140.606 24.7219 140.731 23.3465C140.856 21.9712 141.061 19.874 141.187 18.6862C141.313 17.4984 141.437 16.3469 141.462 16.1287C141.487 15.9104 141.543 15.3989 141.586 14.992C141.628 14.5851 141.711 14.135 141.77 13.9895Z" fill="white"/>
<path d="M210.666 18.0605C211.239 18.0606 212.373 18.109 213.186 18.167C213.998 18.225 215.686 18.3023 216.937 18.3398C218.187 18.3762 219.721 18.4371 220.347 18.4746C220.972 18.5132 221.535 18.5848 221.598 18.6348C221.66 18.6862 221.704 18.8967 221.696 19.1045C221.688 19.3126 221.645 20.1205 221.6 20.9023C221.554 21.6828 221.502 22.45 221.482 22.6074C221.464 22.7631 221.416 23.3784 221.379 23.9717C221.34 24.5649 221.284 25.383 221.255 25.79C221.225 26.197 221.152 27.5276 221.092 28.7461C221.032 29.9645 220.948 31.6538 220.907 32.4971C220.866 33.34 220.865 34.1966 220.902 34.4004C220.944 34.622 221.04 34.7695 221.143 34.7695C221.237 34.7693 221.825 34.5136 222.45 34.2012C223.075 33.8887 223.881 33.5353 224.24 33.416C224.6 33.2967 225.405 33.096 226.03 32.9688C226.655 32.8426 227.449 32.7032 227.792 32.6611C228.136 32.6179 228.929 32.583 229.554 32.583C230.179 32.583 230.972 32.6207 231.315 32.665C231.66 32.7105 232.248 32.8169 232.623 32.9033C232.998 32.9886 233.612 33.1663 233.987 33.2959C234.363 33.4268 235.181 33.785 235.806 34.0918C236.431 34.3987 237.329 34.9452 237.802 35.3066C238.275 35.6681 238.882 36.168 239.152 36.418C239.423 36.6682 239.973 37.3082 240.375 37.8389C240.791 38.3879 241.447 39.4929 241.894 40.3965C242.472 41.5683 242.788 42.3915 243.093 43.5225C243.32 44.3658 243.57 45.593 243.647 46.25C243.725 46.907 243.774 48.1859 243.757 49.0918C243.739 49.9977 243.665 51.1233 243.595 51.5928C243.524 52.061 243.361 52.9312 243.231 53.5244C243.101 54.1177 242.842 55.0405 242.658 55.5713C242.473 56.1019 242.14 56.8684 241.92 57.2754C241.698 57.6822 241.358 58.2704 241.164 58.583C240.97 58.8949 240.774 59.2012 240.728 59.2646C240.682 59.3272 240.496 59.5582 240.315 59.7764C240.135 59.9945 239.929 60.2887 239.857 60.4297C239.786 60.5705 239.651 60.6854 239.557 60.6855C239.463 60.6856 239.273 60.8523 239.135 61.0557C238.997 61.2591 238.729 61.5657 238.538 61.7373C238.348 61.9089 237.834 62.2904 237.396 62.5859C236.959 62.8814 236.346 63.2472 236.033 63.3984C235.721 63.5485 235.082 63.8119 234.612 63.9824C234.144 64.1529 233.452 64.3571 233.077 64.4355C232.702 64.5128 232.268 64.5946 232.111 64.6162C231.955 64.6378 231.086 64.6587 230.179 64.6621C229.273 64.6655 228.121 64.6162 227.621 64.5537C227.121 64.4901 226.559 64.4084 226.371 64.3721C226.183 64.3357 225.596 64.1724 225.064 64.0088C224.534 63.8451 223.523 63.4135 222.819 63.0498C221.968 62.6107 221.479 62.4202 221.354 62.4766C221.194 62.5505 221.174 62.7369 221.256 65.0625L220.347 65.1357C219.846 65.1767 218.184 65.2668 216.652 65.335C215.121 65.4043 213.092 65.4735 212.145 65.4883C211.196 65.5042 210.398 65.4917 210.368 65.46C210.34 65.4281 210.255 64.2 210.181 62.7314C210.106 61.2635 210.027 59.882 210.008 59.6631C209.987 59.4448 209.937 58.549 209.895 57.6738C209.851 56.7989 209.799 55.8784 209.777 55.6279C209.755 55.3778 209.705 54.6365 209.665 53.9795C209.626 53.323 209.574 52.6075 209.549 52.3887C209.525 52.1704 209.471 51.1472 209.43 50.1152C209.388 49.0846 209.339 48.2167 209.32 48.1826C209.302 48.1503 209.256 46.795 209.218 45.1699C209.179 43.5445 209.111 41.1916 209.064 39.9414C209.018 38.6909 208.98 35.6473 208.98 33.1787C208.98 30.7099 209.02 27.8704 209.067 26.8701C209.115 25.8699 209.18 24.7442 209.208 24.3691C209.236 23.9938 209.288 22.9964 209.323 22.1533C209.358 21.3099 209.414 20.2339 209.443 19.7656C209.474 19.2964 209.525 18.7215 209.56 18.4873L209.622 18.0605H210.666ZM227.736 41.9707C226.701 41.9377 226.369 41.972 225.804 42.1641C225.429 42.2925 224.92 42.509 224.674 42.6465C224.428 42.7841 224.059 43.0756 223.854 43.2949C223.65 43.5132 223.333 43.9732 223.151 44.3174C222.97 44.6618 222.711 45.2623 222.578 45.6533C222.446 46.0443 222.284 46.734 222.219 47.1875C222.154 47.6409 222.111 48.4208 222.122 48.9209C222.135 49.4209 222.241 50.2131 222.356 50.6826C222.474 51.1509 222.726 51.8675 222.917 52.2744C223.108 52.6802 223.504 53.2894 223.796 53.627C224.088 53.9656 224.531 54.3795 224.781 54.5488C225.031 54.717 225.555 54.9645 225.946 55.0986C226.337 55.2327 226.951 55.3596 227.311 55.3789C227.67 55.3982 228.271 55.3707 228.646 55.3174C229.032 55.2617 229.623 55.0641 230.01 54.8584C230.385 54.6595 230.972 54.212 231.316 53.8643C231.661 53.5166 232.077 52.9533 232.242 52.6123C232.407 52.2702 232.621 51.7593 232.715 51.4785C232.81 51.1978 232.928 50.6602 232.977 50.2852C233.024 49.91 233.055 49.0142 233.045 48.2959C233.032 47.4415 232.96 46.7926 232.839 46.4209C232.737 46.1083 232.503 45.5191 232.317 45.1133C232.132 44.7065 231.768 44.101 231.507 43.7656C231.247 43.4292 230.802 42.9921 230.521 42.792C230.241 42.5931 229.779 42.3355 229.498 42.2207C229.139 42.073 228.615 41.9991 227.736 41.9707Z" fill="white"/>
<path d="M188.199 28.8613C188.498 28.8613 189.971 28.9614 191.471 29.083C192.971 29.2058 195.195 29.3638 196.415 29.4365C197.633 29.5081 198.656 29.5925 198.688 29.6221C198.719 29.6525 198.729 30.017 198.71 30.4336C198.691 30.8518 198.551 33.0334 198.397 35.2832C198.245 37.533 198.095 39.6296 198.062 39.9434C198.029 40.2559 197.901 41.97 197.778 43.751C197.656 45.5315 197.528 47.3476 197.496 47.7861C197.464 48.2237 197.388 49.4259 197.326 50.458C197.264 51.4899 197.209 52.8445 197.202 53.4697C197.193 54.5325 197.209 54.6207 197.458 54.8105C197.603 54.9228 197.761 55.0119 197.808 55.0088C197.854 55.0064 198.034 54.8806 198.206 54.7295C198.453 54.5125 198.53 54.3251 198.632 53.2422L199.484 53.2441C199.953 53.2453 201.713 53.3718 206.451 53.8105L206.379 55.2891C206.34 56.1017 206.234 57.2017 206.142 57.7324C206.05 58.2631 205.84 59.0824 205.673 59.5508C205.507 60.0202 205.199 60.7356 204.988 61.1426C204.779 61.5495 204.332 62.1884 203.998 62.5635C203.663 62.9385 203.136 63.4319 202.828 63.6592C202.52 63.8865 201.987 64.2248 201.644 64.4111C201.299 64.5976 200.378 64.9126 199.598 65.1104C198.676 65.3433 197.757 65.4921 196.983 65.5342C196.326 65.5705 195.228 65.5447 194.54 65.4766C193.853 65.4072 192.779 65.2231 192.153 65.0674C191.427 64.8855 190.523 64.539 189.652 64.1094C188.542 63.5615 188.14 63.2905 187.492 62.6562C187.055 62.2278 186.548 61.6219 186.365 61.3105C186.183 60.9991 185.913 60.552 185.503 59.8916L184.953 60.5459C184.651 60.905 184.152 61.3866 183.845 61.6162C183.538 61.8447 182.98 62.1839 182.605 62.3691C182.229 62.5544 181.462 62.8369 180.899 62.9971C180.337 63.1573 179.442 63.3357 178.911 63.3926C178.379 63.4505 177.509 63.477 176.979 63.4531C176.447 63.4281 175.577 63.3305 175.046 63.2373C174.514 63.1429 173.696 62.9572 173.228 62.8242C172.758 62.6901 171.914 62.3713 171.352 62.1133C170.789 61.8552 169.922 61.3654 169.424 61.0244C168.926 60.6834 168.083 59.9632 167.549 59.4268C167.015 58.8903 166.288 58.0214 165.934 57.4951C165.58 56.9688 165.074 56.0783 164.812 55.5156C164.548 54.9528 164.108 53.7505 163.833 52.8447C163.559 51.9389 163.247 50.7613 163.139 50.2305C162.989 49.486 162.943 48.6642 162.941 46.6504C162.94 44.992 162.997 43.682 163.096 43.0693C163.18 42.5384 163.418 41.4893 163.626 40.7393C163.833 39.9891 164.104 39.1192 164.226 38.8066C164.348 38.4938 164.683 37.7522 164.971 37.1592C165.258 36.5658 165.835 35.6183 166.255 35.0557C166.674 34.4931 167.43 33.6217 167.934 33.1182C168.438 32.6146 169.235 31.9439 169.704 31.6279C170.172 31.312 170.888 30.8852 171.295 30.6807C171.701 30.4772 172.468 30.1681 173 29.9941C173.531 29.8214 174.401 29.5961 174.933 29.4961C175.495 29.3893 176.48 29.3133 177.291 29.3145C178.057 29.3145 179.054 29.3714 179.508 29.4385C179.961 29.5056 180.741 29.6614 181.241 29.7842C181.741 29.907 182.584 30.1628 183.116 30.3525C183.647 30.5423 184.414 30.8556 184.821 31.0488C185.227 31.242 185.905 31.6221 186.327 31.8926C186.748 32.1625 187.144 32.3838 187.208 32.3848C187.27 32.3847 187.322 32.3214 187.321 32.2432C187.321 32.1646 187.376 31.4356 187.444 30.623C187.513 29.8103 187.589 29.0814 187.613 29.0029C187.641 28.9157 187.866 28.8614 188.199 28.8613ZM180.67 38.8301C180.233 38.796 179.645 38.8094 179.363 38.8594C179.081 38.9083 178.556 39.0315 178.197 39.1338C177.792 39.2487 177.276 39.5242 176.837 39.8594C176.448 40.1561 175.938 40.6553 175.703 40.9678C175.467 41.2804 175.097 41.9452 174.881 42.4453C174.665 42.9452 174.396 43.6858 174.283 44.0928C174.124 44.6622 174.079 45.2356 174.081 46.5938C174.083 47.9168 174.134 48.54 174.284 49.0947C174.396 49.5005 174.663 50.2037 174.879 50.6572C175.138 51.2016 175.494 51.7029 175.928 52.1348C176.288 52.4938 176.838 52.9245 177.149 53.0918C177.46 53.2589 178.15 53.4839 178.681 53.5908C179.366 53.7284 179.928 53.7671 180.613 53.7217C181.328 53.6739 181.801 53.5659 182.432 53.3057C182.901 53.1113 183.552 52.7497 183.881 52.502C184.209 52.2531 184.602 51.8841 184.754 51.6807C184.905 51.4772 185.237 50.8755 185.489 50.3447C185.743 49.8128 186.032 49.0714 186.135 48.6963C186.247 48.2869 186.345 47.3537 186.382 46.3662C186.428 45.0607 186.4 44.5299 186.245 43.8096C186.137 43.3094 185.867 42.5152 185.645 42.0469C185.359 41.4457 185.035 40.9934 184.543 40.5127C184.16 40.1378 183.593 39.6938 183.281 39.5254C182.971 39.3572 182.434 39.1464 182.091 39.0566C181.748 38.9657 181.108 38.8642 180.67 38.8301Z" fill="white"/>
<path d="M95.7062 22.3784C95.7733 22.209 95.8734 22.184 96.2655 22.2363C96.5294 22.2704 97.7159 22.376 98.9035 22.4692C100.091 22.5624 103.16 22.7693 105.724 22.9273C108.286 23.0864 110.393 23.2274 110.407 23.2411C110.419 23.2548 110.455 23.4458 110.484 23.6639C110.515 23.8821 110.573 24.4971 110.612 25.0279C110.652 25.5587 110.759 26.5318 110.85 27.1876C110.94 27.8434 111.089 28.8163 111.181 29.3471C111.272 29.878 111.58 31.1569 111.864 32.189C112.148 33.221 112.513 34.4486 112.673 34.9169C112.834 35.3864 113.18 36.2048 113.444 36.7356C113.706 37.2664 114.209 38.137 114.56 38.6678C114.911 39.1986 115.419 39.9002 115.69 40.2241C115.959 40.5489 116.244 40.8169 116.323 40.8207C116.401 40.8241 116.599 40.5332 116.764 40.174C116.928 39.8148 117.313 38.7793 117.62 37.8722C117.927 36.9652 118.326 35.6364 118.509 34.9169C118.691 34.1974 118.943 33.1494 119.068 32.5868C119.193 32.0241 119.381 30.9249 119.484 30.1429C119.588 29.362 119.731 27.6478 119.932 23.948L120.671 23.9777C121.078 23.9936 123.251 24.1333 125.501 24.2879C127.752 24.4436 129.797 24.5947 130.048 24.6265C130.298 24.6572 131.091 24.7142 131.81 24.7529C132.828 24.8085 133.15 24.8654 133.266 25.0108C133.375 25.1472 133.399 25.4598 133.355 26.1645C133.321 26.6953 133.263 27.6684 133.224 28.3242C133.187 28.9801 133.032 30.643 132.88 32.0184C132.727 33.3937 132.498 35.1066 132.368 35.8262C132.239 36.5457 131.958 37.9519 131.744 38.9521C131.529 39.9524 131.117 41.6402 130.827 42.703C130.536 43.7657 129.982 45.531 129.595 46.6245C129.207 47.7191 128.545 49.432 128.122 50.4323C127.699 51.4326 127.009 52.9422 126.588 53.7856C126.168 54.6289 125.592 55.7291 125.308 56.2292C125.025 56.7293 124.65 57.3943 124.475 57.7069C124.3 58.0195 123.635 59.0686 122.998 60.037C122.36 61.0055 121.438 62.3367 120.95 62.9926C120.463 63.6484 119.549 64.826 118.919 65.6068C118.289 66.3888 117.42 67.4117 116.987 67.88C116.554 68.3495 115.39 69.5385 114.4 70.5229C113.28 71.6379 112.515 72.313 112.373 72.313C112.248 72.3128 111.519 72.0003 110.753 71.6185C109.987 71.2367 109.31 70.8856 109.247 70.8389C109.185 70.7911 108.597 70.4796 107.94 70.1455C107.283 69.8113 106.171 69.2169 105.468 68.8225C104.764 68.4293 104.177 68.1085 104.161 68.1096C104.141 68.1089 103.514 67.7642 102.764 67.3424C102.011 66.9196 101.295 66.5094 101.172 66.4321C100.955 66.2958 100.956 66.2853 101.234 66.0569C101.389 65.9285 101.774 65.6283 102.086 65.3908C102.399 65.1532 103.225 64.3747 103.922 63.6631C104.619 62.9505 105.539 61.9321 105.968 61.4012C106.397 60.8704 107.026 60.0257 107.369 59.5256C107.712 59.0255 108.302 58.0537 108.68 57.3661C109.059 56.6784 109.452 55.936 109.555 55.7178C109.659 55.4995 109.9 54.9744 110.092 54.5528C110.284 54.1313 110.44 53.7347 110.441 53.6719C110.441 53.6094 110.019 53.2125 109.503 52.7919C108.987 52.3702 108.105 51.5645 107.542 51.0007C106.98 50.4381 106.194 49.6196 105.796 49.182C105.399 48.7444 104.572 47.7213 103.961 46.9086C103.349 46.0959 102.495 44.8683 102.064 44.1806C101.633 43.4929 100.994 42.3926 100.645 41.7368C100.296 41.0809 99.7426 39.9557 99.4141 39.2362C99.0856 38.5167 98.6251 37.4438 98.3909 36.8493C98.1556 36.2548 97.8091 35.3089 97.6182 34.7463C97.4284 34.1836 97.1702 33.3403 97.044 32.8709C96.919 32.4026 96.7089 31.5069 96.5793 30.8817C96.4497 30.2566 96.2631 29.2846 96.1654 28.722C96.0676 28.1594 95.9403 27.29 95.8824 26.7898C95.8244 26.2897 95.7425 25.1393 95.7015 24.2323C95.6595 23.3254 95.6619 22.4911 95.7062 22.3784ZM32.3499 14.0308C32.3487 14.4219 32.2713 16.0712 32.1781 17.6965C32.0838 19.322 31.97 21.4101 31.8404 24.0198L35.6677 23.9846C37.7718 23.9641 39.5353 23.9902 39.5892 24.0424C39.6415 24.0953 39.6723 25.707 39.6575 27.6231C39.6438 29.5406 39.5765 31.9525 39.5084 32.9845C39.4402 34.0166 39.3619 34.9874 39.3335 35.1443C39.3051 35.2998 39.2698 35.4395 39.2562 35.4545C39.241 35.4682 39.1001 35.5104 38.9446 35.5478C38.7877 35.5842 36.9979 35.6434 34.9664 35.6775C32.9352 35.7127 31.246 35.7649 31.2153 35.7945C31.1845 35.8253 31.1118 36.7518 31.0539 37.8541C30.9971 38.9578 30.9459 41.7029 30.9403 43.9535C30.9334 47.2383 30.9688 48.292 31.1211 49.2957C31.2257 49.9834 31.4144 50.853 31.5406 51.2281C31.6656 51.6032 31.8701 52.1397 31.9929 52.4216C32.1156 52.7035 32.3623 53.1057 32.5396 53.3182C32.718 53.5296 33.0682 53.8059 33.3183 53.931C33.6263 54.0855 34.0844 54.1765 34.739 54.2117C35.6119 54.2583 35.7985 54.23 36.6714 53.9084C37.2022 53.7129 37.9058 53.3753 38.2343 53.1582C38.5625 52.9402 38.8817 52.7628 38.9446 52.7625C39.0071 52.7625 39.1868 53.0819 39.3448 53.4729C39.5028 53.8639 39.7289 54.5153 39.8483 54.9222C39.9676 55.3291 40.1768 55.968 40.3121 56.3431C40.4474 56.7183 40.8146 57.7412 41.1272 58.6163C41.4397 59.4915 41.8965 60.7703 42.1443 61.458C42.3921 62.1456 42.5662 62.772 42.531 62.8505C42.4966 62.9291 41.9442 63.2835 41.3033 63.6403C40.6623 63.9961 39.7551 64.4497 39.2856 64.6486C38.8173 64.8475 37.8456 65.1965 37.1261 65.4238C36.4066 65.6523 35.4095 65.9149 34.9094 66.0093C34.4092 66.1025 33.4375 66.2104 32.7499 66.249C32.0008 66.2922 31.021 66.2638 30.306 66.1797C29.6502 66.1024 28.7294 65.9375 28.26 65.8125C27.7917 65.6886 27.1778 65.5114 26.896 65.4205C26.614 65.3283 25.8218 64.976 25.1342 64.6384C24.3727 64.2645 23.5088 63.7233 22.9257 63.2527C22.3983 62.8288 21.5878 62.0206 21.1252 61.458C20.6399 60.8669 20.0544 59.9792 19.7384 59.3552C19.4383 58.7607 19.0112 57.6878 18.7884 56.9683C18.5656 56.2488 18.2823 55.2519 18.1573 54.7518C18.0334 54.2517 17.8528 53.2797 17.7562 52.592C17.6595 51.9044 17.5289 50.728 17.4652 49.9778C17.4027 49.2276 17.3493 47.2076 17.3493 45.4879C17.3482 43.7692 17.4038 41.1855 17.4732 39.7477C17.5425 38.3098 17.6061 36.8015 17.6323 35.6558L14.677 35.5751C13.0516 35.5296 11.709 35.4785 11.6931 35.4614C11.6772 35.439 11.666 33.3037 11.6683 30.7113C11.6705 28.1164 11.6954 25.8794 11.725 25.7383C11.7545 25.5974 11.8683 25.4611 11.9774 25.4349C12.0866 25.4088 12.5856 25.3531 13.0856 25.3122C13.5858 25.2713 14.9918 25.1143 16.2114 24.9632C17.4298 24.8133 18.4521 24.6895 18.4848 24.6881C18.5155 24.6848 18.5415 22.4298 18.5415 19.6744C18.5415 16.4543 18.5825 14.6413 18.6552 14.5979C18.718 14.5615 19.4601 14.4661 20.3033 14.3842C21.1466 14.3035 22.3756 14.1842 23.0314 14.1216C23.6873 14.058 25.2991 13.9023 26.6119 13.775C27.9247 13.6477 29.5364 13.5 30.1923 13.4477C30.8482 13.3955 31.6031 13.3453 32.3521 13.3203L32.3499 14.0308ZM74.1814 29.8588C74.1814 31.0325 74.2235 31.7338 74.2951 31.7345C74.358 31.7341 74.8569 31.4363 75.4033 31.0728C75.95 30.7091 76.7046 30.2294 77.0797 30.0066C77.4548 29.7839 78.2484 29.4201 78.8417 29.1996C79.435 28.9791 80.3044 28.72 80.7739 28.6245C81.2421 28.529 82.138 28.4153 82.7632 28.3732C83.4599 28.3255 84.384 28.3506 85.1501 28.4381C85.8377 28.5165 86.771 28.7019 87.2245 28.8496C87.6781 28.9985 88.5989 29.3873 89.2706 29.7135C90.3514 30.2385 90.6108 30.4249 91.5154 31.3387C92.078 31.9058 92.5893 32.4447 92.652 32.5358C92.7146 32.628 92.976 33.0087 93.234 33.3837C93.492 33.7576 93.8319 34.3202 93.9899 34.6328C94.1479 34.9454 94.4299 35.5855 94.6163 36.0538C94.8028 36.5232 95.113 37.4689 95.3051 38.1566C95.4983 38.8442 95.7632 40.0206 95.8928 40.7708C96.0235 41.521 96.2064 43.0044 96.3008 44.0672C96.4087 45.2913 96.461 47.0202 96.4439 48.7842C96.4291 50.3165 96.3758 52.3627 96.3258 53.3311C96.2769 54.2995 96.1576 55.809 96.061 56.6842C95.9655 57.5594 95.8077 58.8381 95.7122 59.5258C95.6156 60.2135 95.5199 60.8784 95.5005 61.0035C95.4801 61.1285 95.4289 61.4604 95.3858 61.7423C95.3426 62.0242 95.2847 62.3436 95.2586 62.4527C95.2165 62.6232 95.1095 62.6436 94.4991 62.5959C94.108 62.5652 93.1236 62.4902 92.311 62.4288C91.4983 62.3686 90.1935 62.2856 89.4126 62.2447C88.6307 62.2037 87.8894 62.1493 87.7644 62.1254C87.6387 62.1004 86.5898 62.023 85.4342 61.9526C84.2791 61.8822 83.2988 61.7936 83.2554 61.7549C83.2145 61.7161 83.2543 61.2761 83.344 60.7761C83.4338 60.2759 83.6566 58.8437 83.8384 57.5934C84.0192 56.3431 84.2464 54.5267 84.343 53.5582C84.4396 52.5898 84.5409 50.978 84.5693 49.9778C84.5965 48.9775 84.5783 47.4941 84.5272 46.6814C84.4635 45.6482 84.326 44.7593 84.0691 43.7261C83.8668 42.9134 83.5805 41.9802 83.4316 41.6517C83.2826 41.3232 82.9176 40.7958 82.6209 40.4787C82.3106 40.148 81.8151 39.7774 81.456 39.6103C81.0593 39.425 80.5806 39.3057 80.1487 39.283C79.7736 39.2637 79.1861 39.3228 78.8417 39.4137C78.4973 39.5047 78.0119 39.7024 77.7618 39.8536C77.5118 40.0036 77.0867 40.348 76.8162 40.6197C76.5457 40.8902 76.1785 41.3414 76.0012 41.6233C75.8227 41.9052 75.5977 42.3906 75.4988 42.7032C75.4011 43.0158 75.2703 43.5784 75.2101 43.9535C75.1487 44.3286 75.1167 45.8631 75.1371 47.3635C75.1587 48.8639 75.2589 51.2167 75.3601 52.592C75.4612 53.9674 75.6249 56.1669 75.7226 57.4797C75.8204 58.7923 75.9203 59.9424 75.9442 60.0373C75.9681 60.1316 76.0158 60.732 76.1135 62.5381L75.7441 62.546C75.5406 62.5506 75.1951 62.5721 74.9769 62.5937C74.7585 62.6153 73.939 62.6631 73.1582 62.6983C72.3773 62.7347 70.4587 62.8152 68.8959 62.88C67.333 62.9437 65.4914 63.0086 63.5546 63.0495L63.4772 62.2537C63.434 61.816 63.3161 60.2054 63.2138 58.6733C63.1115 57.1411 63.0102 55.6588 62.9886 55.3769C62.9659 55.095 62.9147 53.8935 62.8738 52.7057C62.8329 51.518 62.7772 50.3415 62.7488 50.0915C62.7215 49.8412 62.6794 47.1815 62.6566 44.1809C62.6339 41.1801 62.6556 37.753 62.7045 36.5652C62.7534 35.3774 62.8261 33.5361 62.8647 32.4733C62.9045 31.4106 62.9909 30.0807 63.0569 29.518C63.1239 28.9559 63.1853 28.489 63.1956 28.4802C63.2049 28.4711 64.1594 28.4277 65.3152 28.3834C66.4712 28.3391 68.3899 28.238 69.5778 28.1596C70.7656 28.08 72.2877 28.0084 74.1814 27.9834V29.8588ZM51.9357 31.9284C57.0161 31.9477 58.3395 31.9831 58.3965 32.099C58.4363 32.1799 58.449 32.5526 58.4251 32.9276C58.4001 33.3028 58.3055 34.7861 58.2146 36.2239C58.1248 37.6618 58.0237 39.2736 57.9908 39.8044C57.9578 40.3353 57.8918 41.9221 57.8441 43.3281C57.7952 44.7354 57.7565 48.5455 57.7565 51.7963C57.7565 55.8904 57.7997 58.0036 57.8975 58.6731C57.9736 59.2039 58.0635 59.8824 58.0965 60.1791C58.1362 60.553 58.1111 60.7338 58.0123 60.7679C57.9332 60.7952 57.3583 60.8463 56.7336 60.8827C56.1083 60.9179 54.1647 61.0238 52.4143 61.1158C50.6642 61.209 48.9501 61.3111 48.6065 61.3418C48.2632 61.3725 47.5083 61.4248 46.9299 61.4566C46.2834 61.4919 45.8571 61.4714 45.8216 61.401C45.7909 61.3381 45.6659 60.3538 45.5466 59.2129C45.4261 58.0717 45.293 56.4475 45.2521 55.6041C45.21 54.7608 45.1499 53.9424 45.1169 53.7854C45.0851 53.6295 45.0464 50.5856 45.0305 47.0223C45.0157 43.4589 45.0419 39.6737 45.0897 38.6108C45.1363 37.5481 45.2068 36.1933 45.2454 35.5988C45.2841 35.0044 45.3419 34.1871 45.3738 33.7801C45.4044 33.3732 45.4567 32.7855 45.4885 32.4729L45.5466 31.9047L51.9357 31.9284ZM51.7322 13.5692C51.9823 13.5624 52.5712 13.6225 53.0395 13.7055C53.5089 13.7873 54.2239 14 54.6308 14.1773C55.0377 14.3546 55.6253 14.6648 55.9378 14.866C56.2504 15.0683 56.7494 15.4684 57.0461 15.7549C57.3427 16.0413 57.7783 16.5697 58.0136 16.9289C58.2489 17.2881 58.5682 17.9669 58.7227 18.4351C58.9648 19.1716 59.0023 19.4889 58.9966 20.7653C58.9909 22.036 58.9523 22.3384 58.7227 22.9248C58.5761 23.2999 58.2919 23.8888 58.0907 24.2321C57.8895 24.5753 57.4759 25.0983 57.1724 25.3915C56.8689 25.6859 56.3904 26.0915 56.1085 26.2939C55.8266 26.4962 55.2139 26.8281 54.7445 27.0316C54.2762 27.235 53.5089 27.4623 53.0395 27.5351C52.5166 27.618 51.7912 27.6398 51.1638 27.5909C50.5671 27.5454 49.7384 27.3852 49.1747 27.2045C48.553 27.0067 47.9255 26.6997 47.413 26.344C46.9754 26.0405 46.3173 25.4789 45.9513 25.097C45.5512 24.6799 45.1316 24.0854 44.9009 23.6069C44.6883 23.1682 44.4588 22.4543 44.3883 22.0156C44.3178 21.578 44.2871 20.7595 44.3189 20.1969C44.3519 19.6343 44.4736 18.8921 44.5895 18.5488C44.7054 18.2056 44.9794 17.6167 45.1976 17.2416C45.4158 16.8665 45.9785 16.1732 46.4468 15.7014C47.1014 15.0422 47.5233 14.7329 48.2655 14.3669C48.7962 14.1044 49.5135 13.8406 49.8568 13.7804C50.2 13.719 50.6615 13.6509 50.8797 13.627C51.0979 13.6031 51.4822 13.5771 51.7322 13.5692Z" fill="white"/>
</svg>
